ISO-10303-21;
HEADER;
/* Generated by software containing ST-Developer
 * from STEP Tools, Inc. (www.steptools.com) 
 */
/* OPTION: using custom renumber hook */

FILE_DESCRIPTION(
/* description */ ('STEP AP242 Edition 2',
'CAx-IF Rec.Pracs.---Representation and Presentation of Product Manufa
cturing Information (PMI)---4.0---2014-10-13',
'CAx-IF Rec.Pracs.---3D Tessellated Geometry---0.4---2014-09-14','2;1',
'CAx-IF Rec.Pracs.---User Defined Attributes---1.5---2016-08-15'),
/* implementation_level */ '2;1');

FILE_NAME(
/* name */ 'Part Studio 1 - Part 1',
/* time_stamp */ '2026-09-24T13:16:54Z',
/* author */ (''),
/* organization */ (''),
/* preprocessor_version */ 'ST-DEVELOPER v20',
/* originating_system */ 'ONSHAPE BY PTC INC, 1.221',
/* authorisation */ '  ');

FILE_SCHEMA (('AP242_MANAGED_MODEL_BASED_3D_ENGINEERING_MIM_LF { 1 0 10303 442 3 1 4 }'));
ENDSEC;

DATA;
#10=SHAPE_REPRESENTATION_RELATIONSHIP('','',#186,#11);
#11=ADVANCED_BREP_SHAPE_REPRESENTATION('',(#184),#323);
#12=TOROIDAL_SURFACE('',#206,0.0710904266439649,0.0009);
#13=TOROIDAL_SURFACE('',#213,0.0108992985938444,0.0009);
#14=TOROIDAL_SURFACE('',#214,0.0108992985938444,0.0009);
#15=TOROIDAL_SURFACE('',#215,0.0109016844861225,0.0009);
#16=TOROIDAL_SURFACE('',#216,0.0109016844861225,0.0009);
#17=PLANE('',#191);
#18=PLANE('',#193);
#19=PLANE('',#202);
#20=PLANE('',#203);
#21=ORIENTED_EDGE('',*,*,#51,.T.);
#22=ORIENTED_EDGE('',*,*,#52,.F.);
#23=ORIENTED_EDGE('',*,*,#53,.F.);
#24=ORIENTED_EDGE('',*,*,#52,.T.);
#25=ORIENTED_EDGE('',*,*,#54,.T.);
#26=ORIENTED_EDGE('',*,*,#55,.T.);
#27=ORIENTED_EDGE('',*,*,#56,.T.);
#28=ORIENTED_EDGE('',*,*,#57,.T.);
#29=ORIENTED_EDGE('',*,*,#58,.F.);
#30=ORIENTED_EDGE('',*,*,#59,.F.);
#31=ORIENTED_EDGE('',*,*,#53,.T.);
#32=ORIENTED_EDGE('',*,*,#57,.F.);
#33=ORIENTED_EDGE('',*,*,#59,.T.);
#34=ORIENTED_EDGE('',*,*,#60,.T.);
#35=ORIENTED_EDGE('',*,*,#61,.T.);
#36=ORIENTED_EDGE('',*,*,#58,.T.);
#37=ORIENTED_EDGE('',*,*,#56,.F.);
#38=ORIENTED_EDGE('',*,*,#51,.F.);
#39=ORIENTED_EDGE('',*,*,#62,.T.);
#40=ORIENTED_EDGE('',*,*,#63,.T.);
#41=ORIENTED_EDGE('',*,*,#64,.T.);
#42=ORIENTED_EDGE('',*,*,#65,.T.);
#43=ORIENTED_EDGE('',*,*,#60,.F.);
#44=ORIENTED_EDGE('',*,*,#62,.F.);
#45=ORIENTED_EDGE('',*,*,#63,.F.);
#46=ORIENTED_EDGE('',*,*,#54,.F.);
#47=ORIENTED_EDGE('',*,*,#61,.F.);
#48=ORIENTED_EDGE('',*,*,#64,.F.);
#49=ORIENTED_EDGE('',*,*,#65,.F.);
#50=ORIENTED_EDGE('',*,*,#55,.F.);
#51=EDGE_CURVE('',#66,#66,#81,.T.);
#52=EDGE_CURVE('',#67,#67,#82,.T.);
#53=EDGE_CURVE('',#68,#68,#83,.T.);
#54=EDGE_CURVE('',#69,#69,#84,.T.);
#55=EDGE_CURVE('',#70,#70,#85,.T.);
#56=EDGE_CURVE('',#71,#71,#86,.F.);
#57=EDGE_CURVE('',#72,#72,#87,.T.);
#58=EDGE_CURVE('',#73,#73,#88,.T.);
#59=EDGE_CURVE('',#74,#74,#89,.T.);
#60=EDGE_CURVE('',#75,#75,#90,.F.);
#61=EDGE_CURVE('',#76,#76,#91,.F.);
#62=EDGE_CURVE('',#77,#77,#92,.T.);
#63=EDGE_CURVE('',#78,#78,#93,.F.);
#64=EDGE_CURVE('',#79,#79,#94,.T.);
#65=EDGE_CURVE('',#80,#80,#95,.F.);
#66=VERTEX_POINT('',#280);
#67=VERTEX_POINT('',#282);
#68=VERTEX_POINT('',#285);
#69=VERTEX_POINT('',#288);
#70=VERTEX_POINT('',#290);
#71=VERTEX_POINT('',#292);
#72=VERTEX_POINT('',#295);
#73=VERTEX_POINT('',#297);
#74=VERTEX_POINT('',#300);
#75=VERTEX_POINT('',#304);
#76=VERTEX_POINT('',#306);
#77=VERTEX_POINT('',#310);
#78=VERTEX_POINT('',#312);
#79=VERTEX_POINT('',#315);
#80=VERTEX_POINT('',#317);
#81=CIRCLE('',#189,0.0719904266439649);
#82=CIRCLE('',#190,0.0719904266439649);
#83=CIRCLE('',#192,0.0675419437476561);
#84=CIRCLE('',#194,0.0108992985938444);
#85=CIRCLE('',#195,0.0109016844861225);
#86=CIRCLE('',#196,0.0710904266439649);
#87=CIRCLE('',#198,0.0651255526464203);
#88=CIRCLE('',#199,0.0651255526464203);
#89=CIRCLE('',#201,0.0675419437476561);
#90=CIRCLE('',#204,0.0108992985938444);
#91=CIRCLE('',#205,0.0109016844861225);
#92=CIRCLE('',#208,0.00999929859384437);
#93=CIRCLE('',#209,0.00999929859384437);
#94=CIRCLE('',#211,0.0100016844861225);
#95=CIRCLE('',#212,0.0100016844861225);
#96=EDGE_LOOP('',(#21));
#97=EDGE_LOOP('',(#22));
#98=EDGE_LOOP('',(#23));
#99=EDGE_LOOP('',(#24));
#100=EDGE_LOOP('',(#25));
#101=EDGE_LOOP('',(#26));
#102=EDGE_LOOP('',(#27));
#103=EDGE_LOOP('',(#28));
#104=EDGE_LOOP('',(#29));
#105=EDGE_LOOP('',(#30));
#106=EDGE_LOOP('',(#31));
#107=EDGE_LOOP('',(#32));
#108=EDGE_LOOP('',(#33));
#109=EDGE_LOOP('',(#34));
#110=EDGE_LOOP('',(#35));
#111=EDGE_LOOP('',(#36));
#112=EDGE_LOOP('',(#37));
#113=EDGE_LOOP('',(#38));
#114=EDGE_LOOP('',(#39));
#115=EDGE_LOOP('',(#40));
#116=EDGE_LOOP('',(#41));
#117=EDGE_LOOP('',(#42));
#118=EDGE_LOOP('',(#43));
#119=EDGE_LOOP('',(#44));
#120=EDGE_LOOP('',(#45));
#121=EDGE_LOOP('',(#46));
#122=EDGE_LOOP('',(#47));
#123=EDGE_LOOP('',(#48));
#124=EDGE_LOOP('',(#49));
#125=EDGE_LOOP('',(#50));
#126=FACE_BOUND('',#96,.T.);
#127=FACE_BOUND('',#97,.T.);
#128=FACE_BOUND('',#98,.T.);
#129=FACE_BOUND('',#99,.T.);
#130=FACE_BOUND('',#100,.T.);
#131=FACE_BOUND('',#101,.T.);
#132=FACE_BOUND('',#102,.T.);
#133=FACE_BOUND('',#103,.T.);
#134=FACE_BOUND('',#104,.T.);
#135=FACE_BOUND('',#105,.T.);
#136=FACE_BOUND('',#106,.T.);
#137=FACE_BOUND('',#107,.T.);
#138=FACE_BOUND('',#108,.T.);
#139=FACE_BOUND('',#109,.T.);
#140=FACE_BOUND('',#110,.T.);
#141=FACE_BOUND('',#111,.T.);
#142=FACE_BOUND('',#112,.T.);
#143=FACE_BOUND('',#113,.T.);
#144=FACE_BOUND('',#114,.T.);
#145=FACE_BOUND('',#115,.T.);
#146=FACE_BOUND('',#116,.T.);
#147=FACE_BOUND('',#117,.T.);
#148=FACE_BOUND('',#118,.T.);
#149=FACE_BOUND('',#119,.T.);
#150=FACE_BOUND('',#120,.T.);
#151=FACE_BOUND('',#121,.T.);
#152=FACE_BOUND('',#122,.T.);
#153=FACE_BOUND('',#123,.T.);
#154=FACE_BOUND('',#124,.T.);
#155=FACE_BOUND('',#125,.T.);
#156=CYLINDRICAL_SURFACE('',#188,0.0719904266439649);
#157=CYLINDRICAL_SURFACE('',#197,0.0651255526464203);
#158=CYLINDRICAL_SURFACE('',#200,0.0675419437476561);
#159=CYLINDRICAL_SURFACE('',#207,0.00999929859384437);
#160=CYLINDRICAL_SURFACE('',#210,0.0100016844861225);
#161=ADVANCED_FACE('',(#126,#127),#156,.T.);
#162=ADVANCED_FACE('',(#128,#129),#17,.T.);
#163=ADVANCED_FACE('',(#130,#131,#132),#18,.F.);
#164=ADVANCED_FACE('',(#133,#134),#157,.F.);
#165=ADVANCED_FACE('',(#135,#136),#158,.T.);
#166=ADVANCED_FACE('',(#137,#138),#19,.T.);
#167=ADVANCED_FACE('',(#139,#140,#141),#20,.T.);
#168=ADVANCED_FACE('',(#142,#143),#12,.T.);
#169=ADVANCED_FACE('',(#144,#145),#159,.F.);
#170=ADVANCED_FACE('',(#146,#147),#160,.F.);
#171=ADVANCED_FACE('',(#148,#149),#13,.T.);
#172=ADVANCED_FACE('',(#150,#151),#14,.T.);
#173=ADVANCED_FACE('',(#152,#153),#15,.T.);
#174=ADVANCED_FACE('',(#154,#155),#16,.T.);
#175=CLOSED_SHELL('',(#161,#162,#163,#164,#165,#166,#167,#168,#169,#170,
#171,#172,#173,#174));
#176=STYLED_ITEM('',(#177),#184);
#177=PRESENTATION_STYLE_ASSIGNMENT((#178));
#178=SURFACE_STYLE_USAGE(.BOTH.,#179);
#179=SURFACE_SIDE_STYLE('',(#180));
#180=SURFACE_STYLE_FILL_AREA(#181);
#181=FILL_AREA_STYLE('',(#182));
#182=FILL_AREA_STYLE_COLOUR('',#183);
#183=COLOUR_RGB('',0.498039215686275,0.498039215686275,0.498039215686275);
#184=MANIFOLD_SOLID_BREP('Part 1',#175);
#185=SHAPE_DEFINITION_REPRESENTATION(#328,#186);
#186=SHAPE_REPRESENTATION('Part 1',(#187),#323);
#187=AXIS2_PLACEMENT_3D('',#277,#217,#218);
#188=AXIS2_PLACEMENT_3D('',#278,#219,#220);
#189=AXIS2_PLACEMENT_3D('',#279,#221,#222);
#190=AXIS2_PLACEMENT_3D('',#281,#223,#224);
#191=AXIS2_PLACEMENT_3D('',#283,#225,#226);
#192=AXIS2_PLACEMENT_3D('',#284,#227,#228);
#193=AXIS2_PLACEMENT_3D('',#286,#229,#230);
#194=AXIS2_PLACEMENT_3D('',#287,#231,#232);
#195=AXIS2_PLACEMENT_3D('',#289,#233,#234);
#196=AXIS2_PLACEMENT_3D('',#291,#235,#236);
#197=AXIS2_PLACEMENT_3D('',#293,#237,#238);
#198=AXIS2_PLACEMENT_3D('',#294,#239,#240);
#199=AXIS2_PLACEMENT_3D('',#296,#241,#242);
#200=AXIS2_PLACEMENT_3D('',#298,#243,#244);
#201=AXIS2_PLACEMENT_3D('',#299,#245,#246);
#202=AXIS2_PLACEMENT_3D('',#301,#247,#248);
#203=AXIS2_PLACEMENT_3D('',#302,#249,#250);
#204=AXIS2_PLACEMENT_3D('',#303,#251,#252);
#205=AXIS2_PLACEMENT_3D('',#305,#253,#254);
#206=AXIS2_PLACEMENT_3D('',#307,#255,#256);
#207=AXIS2_PLACEMENT_3D('',#308,#257,#258);
#208=AXIS2_PLACEMENT_3D('',#309,#259,#260);
#209=AXIS2_PLACEMENT_3D('',#311,#261,#262);
#210=AXIS2_PLACEMENT_3D('',#313,#263,#264);
#211=AXIS2_PLACEMENT_3D('',#314,#265,#266);
#212=AXIS2_PLACEMENT_3D('',#316,#267,#268);
#213=AXIS2_PLACEMENT_3D('',#318,#269,#270);
#214=AXIS2_PLACEMENT_3D('',#319,#271,#272);
#215=AXIS2_PLACEMENT_3D('',#320,#273,#274);
#216=AXIS2_PLACEMENT_3D('',#321,#275,#276);
#217=DIRECTION('',(0.,0.,1.));
#218=DIRECTION('',(1.,0.,0.));
#219=DIRECTION('',(0.,0.,1.));
#220=DIRECTION('',(1.,0.,0.));
#221=DIRECTION('',(0.,0.,-1.));
#222=DIRECTION('',(-1.,0.,0.));
#223=DIRECTION('',(0.,0.,-1.));
#224=DIRECTION('',(-1.,0.,0.));
#225=DIRECTION('',(0.,0.,-1.));
#226=DIRECTION('',(1.,0.,0.));
#227=DIRECTION('',(0.,0.,-1.));
#228=DIRECTION('',(-1.,0.,0.));
#229=DIRECTION('',(0.,0.,-1.));
#230=DIRECTION('',(1.,0.,0.));
#231=DIRECTION('',(0.,0.,-1.));
#232=DIRECTION('',(-1.,0.,0.));
#233=DIRECTION('',(0.,0.,-1.));
#234=DIRECTION('',(-1.,0.,0.));
#235=DIRECTION('',(0.,0.,-1.));
#236=DIRECTION('',(-1.,0.,0.));
#237=DIRECTION('',(0.,0.,1.));
#238=DIRECTION('',(1.,0.,0.));
#239=DIRECTION('',(0.,0.,-1.));
#240=DIRECTION('',(-1.,0.,0.));
#241=DIRECTION('',(0.,0.,-1.));
#242=DIRECTION('',(-1.,0.,0.));
#243=DIRECTION('',(0.,0.,1.));
#244=DIRECTION('',(1.,0.,0.));
#245=DIRECTION('',(0.,0.,-1.));
#246=DIRECTION('',(-1.,0.,0.));
#247=DIRECTION('',(0.,0.,-1.));
#248=DIRECTION('',(1.,0.,0.));
#249=DIRECTION('',(0.,0.,-1.));
#250=DIRECTION('',(1.,0.,0.));
#251=DIRECTION('',(0.,0.,-1.));
#252=DIRECTION('',(-1.,0.,0.));
#253=DIRECTION('',(0.,0.,-1.));
#254=DIRECTION('',(-1.,0.,0.));
#255=DIRECTION('',(0.,0.,-1.));
#256=DIRECTION('',(-1.,0.,0.));
#257=DIRECTION('',(0.,0.,-1.));
#258=DIRECTION('',(-1.,0.,0.));
#259=DIRECTION('',(0.,0.,-1.));
#260=DIRECTION('',(-1.,0.,0.));
#261=DIRECTION('',(0.,0.,-1.));
#262=DIRECTION('',(-1.,0.,0.));
#263=DIRECTION('',(0.,0.,-1.));
#264=DIRECTION('',(-1.,0.,0.));
#265=DIRECTION('',(0.,0.,-1.));
#266=DIRECTION('',(-1.,0.,0.));
#267=DIRECTION('',(0.,0.,-1.));
#268=DIRECTION('',(-1.,0.,0.));
#269=DIRECTION('',(0.,0.,-1.));
#270=DIRECTION('',(-1.,0.,0.));
#271=DIRECTION('',(0.,0.,-1.));
#272=DIRECTION('',(-1.,0.,0.));
#273=DIRECTION('',(0.,0.,-1.));
#274=DIRECTION('',(-1.,0.,0.));
#275=DIRECTION('',(0.,0.,-1.));
#276=DIRECTION('',(-1.,0.,0.));
#277=CARTESIAN_POINT('',(0.,0.,0.));
#278=CARTESIAN_POINT('',(0.,-2.85355827906636E-18,-0.0538));
#279=CARTESIAN_POINT('',(0.,-2.85355827906636E-18,-0.0527));
#280=CARTESIAN_POINT('',(-0.0719904266439649,-2.85355827906636E-18,-0.0527));
#281=CARTESIAN_POINT('',(0.,-2.85355827906636E-18,-0.0538));
#282=CARTESIAN_POINT('',(-0.0719904266439649,-2.85355827906636E-18,-0.0538));
#283=CARTESIAN_POINT('',(0.,0.,-0.0538));
#284=CARTESIAN_POINT('',(0.,-4.13575126093788E-18,-0.0538));
#285=CARTESIAN_POINT('',(-0.0675419437476561,-4.13575126093788E-18,-0.0538));
#286=CARTESIAN_POINT('',(0.,0.,-0.0518));
#287=CARTESIAN_POINT('',(0.0399896837770939,-4.74803171177139E-18,-0.0518));
#288=CARTESIAN_POINT('',(0.0290903851832495,-4.74803171177139E-18,-0.0518));
#289=CARTESIAN_POINT('',(-0.0400045439600945,-4.74817780553847E-18,-0.0518));
#290=CARTESIAN_POINT('',(-0.050906228446217,-4.74817780553847E-18,-0.0518));
#291=CARTESIAN_POINT('',(0.,-2.85355827906636E-18,-0.0518));
#292=CARTESIAN_POINT('',(-0.0710904266439649,-2.85355827906636E-18,-0.0518));
#293=CARTESIAN_POINT('',(0.,-3.98778997955705E-18,-0.0568));
#294=CARTESIAN_POINT('',(0.,-3.98778997955705E-18,-0.0568));
#295=CARTESIAN_POINT('',(-0.0651255526464203,-3.98778997955705E-18,-0.0568));
#296=CARTESIAN_POINT('',(0.,-3.98778997955705E-18,-0.0538));
#297=CARTESIAN_POINT('',(-0.0651255526464203,-3.98778997955705E-18,-0.0538));
#298=CARTESIAN_POINT('',(0.,-4.13575126093788E-18,-0.0568));
#299=CARTESIAN_POINT('',(0.,-4.13575126093788E-18,-0.0568));
#300=CARTESIAN_POINT('',(-0.0675419437476561,-4.13575126093788E-18,-0.0568));
#301=CARTESIAN_POINT('',(0.,0.,-0.0568));
#302=CARTESIAN_POINT('',(0.,0.,-0.0538));
#303=CARTESIAN_POINT('',(0.0399896837770939,-4.74803171177139E-18,-0.0538));
#304=CARTESIAN_POINT('',(0.0290903851832495,-4.74803171177139E-18,-0.0538));
#305=CARTESIAN_POINT('',(-0.0400045439600945,-4.74817780553847E-18,-0.0538));
#306=CARTESIAN_POINT('',(-0.050906228446217,-4.74817780553847E-18,-0.0538));
#307=CARTESIAN_POINT('',(0.,-2.85355827906636E-18,-0.0527));
#308=CARTESIAN_POINT('',(0.0399896837770939,-4.74803171177139E-18,-0.0288));
#309=CARTESIAN_POINT('',(0.0399896837770939,-4.74803171177139E-18,-0.0529));
#310=CARTESIAN_POINT('',(0.0299903851832495,-4.74803171177139E-18,-0.0529));
#311=CARTESIAN_POINT('',(0.0399896837770939,-4.74803171177139E-18,-0.0527));
#312=CARTESIAN_POINT('',(0.0299903851832495,-4.74803171177139E-18,-0.0527));
#313=CARTESIAN_POINT('',(-0.0400045439600945,-4.74817780553847E-18,-0.0288));
#314=CARTESIAN_POINT('',(-0.0400045439600945,-4.74817780553847E-18,-0.0529));
#315=CARTESIAN_POINT('',(-0.050006228446217,-4.74817780553847E-18,-0.0529));
#316=CARTESIAN_POINT('',(-0.0400045439600945,-4.74817780553847E-18,-0.0527));
#317=CARTESIAN_POINT('',(-0.050006228446217,-4.74817780553847E-18,-0.0527));
#318=CARTESIAN_POINT('',(0.0399896837770939,-4.74803171177139E-18,-0.0529));
#319=CARTESIAN_POINT('',(0.0399896837770939,-4.74803171177139E-18,-0.0527));
#320=CARTESIAN_POINT('',(-0.0400045439600945,-4.74817780553847E-18,-0.0529));
#321=CARTESIAN_POINT('',(-0.0400045439600945,-4.74817780553847E-18,-0.0527));
#322=MECHANICAL_DESIGN_GEOMETRIC_PRESENTATION_REPRESENTATION('',(#176),
#323);
#323=(
GEOMETRIC_REPRESENTATION_CONTEXT(3)
GLOBAL_UNCERTAINTY_ASSIGNED_CONTEXT((#324))
GLOBAL_UNIT_ASSIGNED_CONTEXT((#327,#326,#325))
REPRESENTATION_CONTEXT('Part 1','TOP_LEVEL_ASSEMBLY_PART')
);
#324=UNCERTAINTY_MEASURE_WITH_UNIT(LENGTH_MEASURE(1.E-8),#327,
'DISTANCE_ACCURACY_VALUE','Maximum Tolerance applied to model');
#325=(
NAMED_UNIT(*)
SI_UNIT($,.STERADIAN.)
SOLID_ANGLE_UNIT()
);
#326=(
NAMED_UNIT(*)
PLANE_ANGLE_UNIT()
SI_UNIT($,.RADIAN.)
);
#327=(
LENGTH_UNIT()
NAMED_UNIT(*)
SI_UNIT($,.METRE.)
);
#328=PRODUCT_DEFINITION_SHAPE('','',#329);
#329=PRODUCT_DEFINITION('','',#331,#330);
#330=PRODUCT_DEFINITION_CONTEXT('',#337,'design');
#331=PRODUCT_DEFINITION_FORMATION_WITH_SPECIFIED_SOURCE('','',#333,
 .NOT_KNOWN.);
#332=PRODUCT_RELATED_PRODUCT_CATEGORY('','',(#333));
#333=PRODUCT('Part 1','Part 1','Part 1',(#335));
#334=PRODUCT_CATEGORY('','');
#335=PRODUCT_CONTEXT('',#337,'mechanical');
#336=APPLICATION_PROTOCOL_DEFINITION('international standard',
'ap242_managed_model_based_3d_engineering',2020,#337);
#337=APPLICATION_CONTEXT('managed model based 3d engineering');
ENDSEC;
END-ISO-10303-21;
