ISO-10303-21;
HEADER;
/* Generated by software containing ST-Developer
 * from STEP Tools, Inc. (www.steptools.com) 
 */
/* OPTION: using custom renumber hook */

FILE_DESCRIPTION(
/* description */ ('STEP AP242 Edition 2',
'CAx-IF Rec.Pracs.---Representation and Presentation of Product Manufa
cturing Information (PMI)---4.0---2014-10-13',
'CAx-IF Rec.Pracs.---3D Tessellated Geometry---0.4---2014-09-14','2;1',
'CAx-IF Rec.Pracs.---User Defined Attributes---1.5---2016-08-15'),
/* implementation_level */ '2;1');

FILE_NAME(
/* name */ 'Part Studio 1 - Part 4',
/* time_stamp */ '2026-09-24T13:21:03Z',
/* author */ (''),
/* organization */ (''),
/* preprocessor_version */ 'ST-DEVELOPER v20',
/* originating_system */ 'ONSHAPE BY PTC INC, 1.221',
/* authorisation */ '  ');

FILE_SCHEMA (('AP242_MANAGED_MODEL_BASED_3D_ENGINEERING_MIM_LF { 1 0 10303 442 3 1 4 }'));
ENDSEC;

DATA;
#10=SHAPE_REPRESENTATION_RELATIONSHIP('','',#514,#11);
#11=ADVANCED_BREP_SHAPE_REPRESENTATION('',(#512),#1009);
#12=(
BOUNDED_SURFACE()
B_SPLINE_SURFACE(3,2,((#893,#894,#895),(#896,#897,#898),(#899,#900,#901),
(#902,#903,#904),(#905,#906,#907),(#908,#909,#910),(#911,#912,#913),(#914,
#915,#916),(#917,#918,#919),(#920,#921,#922),(#923,#924,#925),(#926,#927,
#928),(#929,#930,#931),(#932,#933,#934),(#935,#936,#937),(#938,#939,#940),
(#941,#942,#943),(#944,#945,#946),(#947,#948,#949)),.UNSPECIFIED.,.T.,.F.,
 .F.)
B_SPLINE_SURFACE_WITH_KNOTS((1,3,1,1,1,1,1,1,1,1,1,1,1,1,1,1,1,3,1),(3,
3),(-0.00417913423806146,0.,0.00417913423806147,0.00835826847612293,0.0125374027141844,
0.0167165369522459,0.0208956711903073,0.0250748054283688,0.0292539396664303,
0.0334330739044917,0.0376122081425532,0.0417913423806147,0.0459704766186761,
0.0501496108567376,0.0543287450947991,0.0585078793328605,0.062687013570922,
0.0668661478089835,0.0710452820470449),(0.,1.),.UNSPECIFIED.)
GEOMETRIC_REPRESENTATION_ITEM()
RATIONAL_B_SPLINE_SURFACE(((1.,0.707106953596019,1.),(1.,0.707132382223853,
1.),(1.,0.713074316779585,1.),(1.,0.733746125760014,1.),(1.,0.753651551757004,
1.),(1.,0.761714388110476,1.),(1.,0.753552774556376,1.),(1.,0.73354170418337,
1.),(1.,0.712915603287213,1.),(1.,0.704164492762249,1.),(1.,0.713068185718983,
1.),(1.,0.733763580610158,1.),(1.,0.753694036235484,1.),(1.,0.761714119807486,
1.),(1.,0.753510234352472,1.),(1.,0.733532562558088,1.),(1.,0.712921745012578,
1.),(1.,0.707081524968184,1.),(1.,0.707106953596019,1.)))
REPRESENTATION_ITEM('')
SURFACE()
);
#13=(
BOUNDED_SURFACE()
B_SPLINE_SURFACE(3,2,((#950,#951,#952),(#953,#954,#955),(#956,#957,#958),
(#959,#960,#961),(#962,#963,#964),(#965,#966,#967),(#968,#969,#970),(#971,
#972,#973),(#974,#975,#976),(#977,#978,#979),(#980,#981,#982),(#983,#984,
#985),(#986,#987,#988),(#989,#990,#991),(#992,#993,#994),(#995,#996,#997),
(#998,#999,#1000),(#1001,#1002,#1003),(#1004,#1005,#1006)),
 .UNSPECIFIED.,.T.,.F.,.F.)
B_SPLINE_SURFACE_WITH_KNOTS((1,3,1,1,1,1,1,1,1,1,1,1,1,1,1,1,1,3,1),(3,
3),(-0.00417816662026152,0.,0.00417816662026152,0.00835633324052304,0.0125344998607846,
0.0167126664810461,0.0208908331013076,0.0250689997215691,0.0292471663418306,
0.0334253329620922,0.0376034995823537,0.0417816662026152,0.0459598328228767,
0.0501379994431382,0.0543161660633998,0.0584943326836613,0.0626724993039228,
0.0668506659241843,0.0710288325444458),(0.,1.),.UNSPECIFIED.)
GEOMETRIC_REPRESENTATION_ITEM()
RATIONAL_B_SPLINE_SURFACE(((1.,0.704321944526331,1.),(1.,0.707445980825049,
1.),(1.,0.708436407998279,1.),(1.,0.693379024110751,1.),(1.,0.66992628572124,
1.),(1.,0.651490797733999,1.),(1.,0.649793590818663,1.),(1.,0.666054093877479,
1.),(1.,0.689699284231979,1.),(1.,0.706949528755204,1.),(1.,0.708439274232808,
1.),(1.,0.693365344789722,1.),(1.,0.669863803121061,1.),(1.,0.651456823862152,
1.),(1.,0.649823074843336,1.),(1.,0.666069158512082,1.),(1.,0.689692190205971,
1.),(1.,0.701197908227613,1.),(1.,0.704321944526331,1.)))
REPRESENTATION_ITEM('')
SURFACE()
);
#14=B_SPLINE_CURVE_WITH_KNOTS('',3,(#774,#775,#776,#777,#778,#779,#780,
#781,#782,#783,#784,#785,#786,#787,#788,#789,#790,#791,#792),
 .UNSPECIFIED.,.T.,.F.,(1,1,1,1,1,1,1,1,1,1,1,1,1,1,1,1,1,1,1,1,1,1,1),
(-0.0125737735938336,-0.00838251572922241,-0.00419125786461121,1.8290075166074E-18,
0.00419125786461121,0.00838251572922241,0.0125737735938336,0.0167650314584448,
0.020956289323056,0.0251475471876672,0.0293388050522784,0.0335300629168896,
0.0377213207815008,0.041912578646112,0.0461038365107233,0.0502950943753345,
0.0544863522399457,0.0586776101045569,0.0628688679691681,0.0670601258337793,
0.0712513836983905,0.0754426415630017,0.0796338994276129),.UNSPECIFIED.);
#15=B_SPLINE_CURVE_WITH_KNOTS('',3,(#815,#816,#817,#818,#819,#820,#821,
#822,#823,#824,#825,#826,#827,#828,#829,#830,#831,#832,#833),
 .UNSPECIFIED.,.T.,.F.,(1,1,1,1,1,1,1,1,1,1,1,1,1,1,1,1,1,1,1,1,1,1,1),
(-0.0128409674809332,-0.00856064498728877,-0.00428032249364439,2.49439146676383E-19,
0.00428032249364438,0.00856064498728877,0.0128409674809332,0.0171212899745775,
0.0214016124682219,0.0256819349618663,0.0299622574555107,0.0342425799491551,
0.0385229024427995,0.0428032249364438,0.0470835474300882,0.0513638699237326,
0.055644192417377,0.0599245149110214,0.0642048374046658,0.0684851598983102,
0.0727654823919545,0.0770458048855989,0.0813261273792433),.UNSPECIFIED.);
#16=B_SPLINE_CURVE_WITH_KNOTS('',3,(#853,#854,#855,#856,#857,#858,#859,
#860,#861,#862,#863,#864,#865,#866,#867,#868,#869,#870,#871),
 .UNSPECIFIED.,.T.,.F.,(1,1,1,1,1,1,1,1,1,1,1,1,1,1,1,1,1,1,1,1,1,1,1),
(-0.0106141892224002,-0.0070761261482668,-0.0035380630741334,5.16677555171616E-18,
0.00353806307413341,0.00707612614826681,0.0106141892224002,0.0141522522965336,
0.017690315370667,0.0212283784448004,0.0247664415189338,0.0283045045930672,
0.0318425676672006,0.035380630741334,0.0389186938154674,0.0424567568896008,
0.0459948199637343,0.0495328830378677,0.0530709461120011,0.0566090091861345,
0.0601470722602679,0.0636851353344013,0.0672231984085347),.UNSPECIFIED.);
#17=B_SPLINE_CURVE_WITH_KNOTS('',3,(#873,#874,#875,#876,#877,#878,#879,
#880,#881,#882,#883,#884,#885,#886,#887,#888,#889,#890,#891),
 .UNSPECIFIED.,.T.,.F.,(1,1,1,1,1,1,1,1,1,1,1,1,1,1,1,1,1,1,1,1,1,1,1),
(-0.0106926354956718,-0.00712842366378121,-0.0035642118318906,2.29406129602366E-18,
0.0035642118318906,0.00712842366378121,0.0106926354956718,0.0142568473275624,
0.017821059159453,0.0213852709913436,0.0249494828232342,0.0285136946551248,
0.0320779064870154,0.035642118318906,0.0392063301507966,0.0427705419826872,
0.0463347538145778,0.0498989656464684,0.053463177478359,0.0570273893102496,
0.0605916011421402,0.0641558129740308,0.0677200248059214),.UNSPECIFIED.);
#18=CIRCLE('',#527,0.0685268013578746);
#19=CIRCLE('',#528,0.0685268013578746);
#20=CIRCLE('',#530,0.0685222004388313);
#21=CIRCLE('',#531,0.0685222004388313);
#22=CIRCLE('',#533,0.0685268013578746);
#23=CIRCLE('',#534,0.0685268013578746);
#24=CIRCLE('',#537,0.0685222004388313);
#25=CIRCLE('',#538,0.0685222004388313);
#26=CIRCLE('',#540,0.0720194371585948);
#27=CIRCLE('',#541,0.0720194371585948);
#28=CIRCLE('',#546,0.0253882833802399);
#29=CIRCLE('',#547,0.0253882833802399);
#30=CIRCLE('',#549,0.0234973430076022);
#31=CIRCLE('',#550,0.0234973430076022);
#32=CYLINDRICAL_SURFACE('',#526,0.0685268013578746);
#33=CYLINDRICAL_SURFACE('',#529,0.0685222004388313);
#34=CYLINDRICAL_SURFACE('',#532,0.0685268013578746);
#35=CYLINDRICAL_SURFACE('',#536,0.0685222004388313);
#36=CYLINDRICAL_SURFACE('',#539,0.0720194371585948);
#37=CYLINDRICAL_SURFACE('',#545,0.0253882833802399);
#38=CYLINDRICAL_SURFACE('',#548,0.0234973430076022);
#39=CYLINDRICAL_SURFACE('',#552,0.00903682275943855);
#40=ORIENTED_EDGE('',*,*,#176,.T.);
#41=ORIENTED_EDGE('',*,*,#177,.F.);
#42=ORIENTED_EDGE('',*,*,#178,.T.);
#43=ORIENTED_EDGE('',*,*,#179,.F.);
#44=ORIENTED_EDGE('',*,*,#180,.T.);
#45=ORIENTED_EDGE('',*,*,#181,.F.);
#46=ORIENTED_EDGE('',*,*,#182,.T.);
#47=ORIENTED_EDGE('',*,*,#183,.T.);
#48=ORIENTED_EDGE('',*,*,#184,.T.);
#49=ORIENTED_EDGE('',*,*,#185,.F.);
#50=ORIENTED_EDGE('',*,*,#186,.F.);
#51=ORIENTED_EDGE('',*,*,#187,.T.);
#52=ORIENTED_EDGE('',*,*,#188,.F.);
#53=ORIENTED_EDGE('',*,*,#189,.F.);
#54=ORIENTED_EDGE('',*,*,#190,.F.);
#55=ORIENTED_EDGE('',*,*,#188,.T.);
#56=ORIENTED_EDGE('',*,*,#191,.T.);
#57=ORIENTED_EDGE('',*,*,#180,.F.);
#58=ORIENTED_EDGE('',*,*,#192,.T.);
#59=ORIENTED_EDGE('',*,*,#190,.T.);
#60=ORIENTED_EDGE('',*,*,#193,.F.);
#61=ORIENTED_EDGE('',*,*,#194,.F.);
#62=ORIENTED_EDGE('',*,*,#191,.F.);
#63=ORIENTED_EDGE('',*,*,#187,.F.);
#64=ORIENTED_EDGE('',*,*,#195,.T.);
#65=ORIENTED_EDGE('',*,*,#181,.T.);
#66=ORIENTED_EDGE('',*,*,#193,.T.);
#67=ORIENTED_EDGE('',*,*,#189,.T.);
#68=ORIENTED_EDGE('',*,*,#196,.F.);
#69=ORIENTED_EDGE('',*,*,#197,.F.);
#70=ORIENTED_EDGE('',*,*,#198,.T.);
#71=ORIENTED_EDGE('',*,*,#199,.F.);
#72=ORIENTED_EDGE('',*,*,#200,.F.);
#73=ORIENTED_EDGE('',*,*,#201,.F.);
#74=ORIENTED_EDGE('',*,*,#202,.T.);
#75=ORIENTED_EDGE('',*,*,#203,.T.);
#76=ORIENTED_EDGE('',*,*,#204,.T.);
#77=ORIENTED_EDGE('',*,*,#205,.T.);
#78=ORIENTED_EDGE('',*,*,#206,.F.);
#79=ORIENTED_EDGE('',*,*,#207,.F.);
#80=ORIENTED_EDGE('',*,*,#208,.T.);
#81=ORIENTED_EDGE('',*,*,#209,.T.);
#82=ORIENTED_EDGE('',*,*,#210,.T.);
#83=ORIENTED_EDGE('',*,*,#211,.F.);
#84=ORIENTED_EDGE('',*,*,#212,.T.);
#85=ORIENTED_EDGE('',*,*,#213,.F.);
#86=ORIENTED_EDGE('',*,*,#204,.F.);
#87=ORIENTED_EDGE('',*,*,#214,.T.);
#88=ORIENTED_EDGE('',*,*,#210,.F.);
#89=ORIENTED_EDGE('',*,*,#215,.T.);
#90=ORIENTED_EDGE('',*,*,#213,.T.);
#91=ORIENTED_EDGE('',*,*,#209,.F.);
#92=ORIENTED_EDGE('',*,*,#216,.F.);
#93=ORIENTED_EDGE('',*,*,#217,.T.);
#94=ORIENTED_EDGE('',*,*,#218,.F.);
#95=ORIENTED_EDGE('',*,*,#199,.T.);
#96=ORIENTED_EDGE('',*,*,#198,.F.);
#97=ORIENTED_EDGE('',*,*,#215,.F.);
#98=ORIENTED_EDGE('',*,*,#219,.T.);
#99=ORIENTED_EDGE('',*,*,#220,.T.);
#100=ORIENTED_EDGE('',*,*,#207,.T.);
#101=ORIENTED_EDGE('',*,*,#221,.F.);
#102=ORIENTED_EDGE('',*,*,#183,.F.);
#103=ORIENTED_EDGE('',*,*,#192,.F.);
#104=ORIENTED_EDGE('',*,*,#222,.T.);
#105=ORIENTED_EDGE('',*,*,#179,.T.);
#106=ORIENTED_EDGE('',*,*,#178,.F.);
#107=ORIENTED_EDGE('',*,*,#223,.F.);
#108=ORIENTED_EDGE('',*,*,#224,.F.);
#109=ORIENTED_EDGE('',*,*,#225,.T.);
#110=ORIENTED_EDGE('',*,*,#196,.T.);
#111=ORIENTED_EDGE('',*,*,#224,.T.);
#112=ORIENTED_EDGE('',*,*,#226,.T.);
#113=ORIENTED_EDGE('',*,*,#227,.F.);
#114=ORIENTED_EDGE('',*,*,#228,.F.);
#115=ORIENTED_EDGE('',*,*,#227,.T.);
#116=ORIENTED_EDGE('',*,*,#229,.F.);
#117=ORIENTED_EDGE('',*,*,#230,.F.);
#118=ORIENTED_EDGE('',*,*,#231,.T.);
#119=ORIENTED_EDGE('',*,*,#232,.T.);
#120=ORIENTED_EDGE('',*,*,#233,.F.);
#121=ORIENTED_EDGE('',*,*,#234,.T.);
#122=ORIENTED_EDGE('',*,*,#230,.T.);
#123=ORIENTED_EDGE('',*,*,#235,.T.);
#124=ORIENTED_EDGE('',*,*,#217,.F.);
#125=ORIENTED_EDGE('',*,*,#236,.F.);
#126=ORIENTED_EDGE('',*,*,#233,.T.);
#127=ORIENTED_EDGE('',*,*,#219,.F.);
#128=ORIENTED_EDGE('',*,*,#216,.T.);
#129=ORIENTED_EDGE('',*,*,#208,.F.);
#130=ORIENTED_EDGE('',*,*,#222,.F.);
#131=ORIENTED_EDGE('',*,*,#194,.T.);
#132=ORIENTED_EDGE('',*,*,#197,.T.);
#133=ORIENTED_EDGE('',*,*,#225,.F.);
#134=ORIENTED_EDGE('',*,*,#228,.T.);
#135=ORIENTED_EDGE('',*,*,#231,.F.);
#136=ORIENTED_EDGE('',*,*,#236,.T.);
#137=ORIENTED_EDGE('',*,*,#214,.F.);
#138=ORIENTED_EDGE('',*,*,#203,.F.);
#139=ORIENTED_EDGE('',*,*,#237,.T.);
#140=ORIENTED_EDGE('',*,*,#211,.T.);
#141=ORIENTED_EDGE('',*,*,#201,.T.);
#142=ORIENTED_EDGE('',*,*,#238,.F.);
#143=ORIENTED_EDGE('',*,*,#176,.F.);
#144=ORIENTED_EDGE('',*,*,#239,.T.);
#145=ORIENTED_EDGE('',*,*,#185,.T.);
#146=ORIENTED_EDGE('',*,*,#240,.F.);
#147=ORIENTED_EDGE('',*,*,#205,.F.);
#148=ORIENTED_EDGE('',*,*,#241,.T.);
#149=ORIENTED_EDGE('',*,*,#237,.F.);
#150=ORIENTED_EDGE('',*,*,#202,.F.);
#151=ORIENTED_EDGE('',*,*,#239,.F.);
#152=ORIENTED_EDGE('',*,*,#182,.F.);
#153=ORIENTED_EDGE('',*,*,#195,.F.);
#154=ORIENTED_EDGE('',*,*,#186,.T.);
#155=ORIENTED_EDGE('',*,*,#241,.F.);
#156=ORIENTED_EDGE('',*,*,#212,.F.);
#157=ORIENTED_EDGE('',*,*,#242,.T.);
#158=ORIENTED_EDGE('',*,*,#243,.T.);
#159=ORIENTED_EDGE('',*,*,#220,.F.);
#160=ORIENTED_EDGE('',*,*,#242,.F.);
#161=ORIENTED_EDGE('',*,*,#243,.F.);
#162=ORIENTED_EDGE('',*,*,#232,.F.);
#163=ORIENTED_EDGE('',*,*,#177,.T.);
#164=ORIENTED_EDGE('',*,*,#238,.T.);
#165=ORIENTED_EDGE('',*,*,#200,.T.);
#166=ORIENTED_EDGE('',*,*,#218,.T.);
#167=ORIENTED_EDGE('',*,*,#235,.F.);
#168=ORIENTED_EDGE('',*,*,#229,.T.);
#169=ORIENTED_EDGE('',*,*,#226,.F.);
#170=ORIENTED_EDGE('',*,*,#223,.T.);
#171=ORIENTED_EDGE('',*,*,#184,.F.);
#172=ORIENTED_EDGE('',*,*,#221,.T.);
#173=ORIENTED_EDGE('',*,*,#206,.T.);
#174=ORIENTED_EDGE('',*,*,#240,.T.);
#175=ORIENTED_EDGE('',*,*,#234,.F.);
#176=EDGE_CURVE('',#244,#245,#291,.T.);
#177=EDGE_CURVE('',#246,#245,#292,.T.);
#178=EDGE_CURVE('',#246,#247,#293,.T.);
#179=EDGE_CURVE('',#248,#247,#294,.T.);
#180=EDGE_CURVE('',#248,#249,#295,.T.);
#181=EDGE_CURVE('',#250,#249,#296,.T.);
#182=EDGE_CURVE('',#250,#244,#297,.T.);
#183=EDGE_CURVE('',#251,#252,#298,.T.);
#184=EDGE_CURVE('',#252,#253,#299,.T.);
#185=EDGE_CURVE('',#254,#253,#300,.T.);
#186=EDGE_CURVE('',#255,#254,#301,.T.);
#187=EDGE_CURVE('',#255,#256,#302,.T.);
#188=EDGE_CURVE('',#251,#256,#303,.T.);
#189=EDGE_CURVE('',#257,#248,#304,.T.);
#190=EDGE_CURVE('',#251,#257,#305,.T.);
#191=EDGE_CURVE('',#256,#249,#306,.T.);
#192=EDGE_CURVE('',#258,#251,#307,.T.);
#193=EDGE_CURVE('',#259,#257,#308,.T.);
#194=EDGE_CURVE('',#258,#259,#309,.T.);
#195=EDGE_CURVE('',#255,#250,#310,.T.);
#196=EDGE_CURVE('',#260,#248,#311,.T.);
#197=EDGE_CURVE('',#259,#260,#312,.T.);
#198=EDGE_CURVE('',#261,#262,#313,.T.);
#199=EDGE_CURVE('',#263,#262,#314,.T.);
#200=EDGE_CURVE('',#264,#263,#315,.T.);
#201=EDGE_CURVE('',#265,#264,#316,.T.);
#202=EDGE_CURVE('',#265,#266,#317,.T.);
#203=EDGE_CURVE('',#266,#267,#318,.T.);
#204=EDGE_CURVE('',#267,#261,#319,.T.);
#205=EDGE_CURVE('',#268,#269,#320,.T.);
#206=EDGE_CURVE('',#270,#269,#321,.T.);
#207=EDGE_CURVE('',#271,#270,#322,.T.);
#208=EDGE_CURVE('',#271,#272,#323,.T.);
#209=EDGE_CURVE('',#272,#273,#324,.T.);
#210=EDGE_CURVE('',#273,#274,#325,.T.);
#211=EDGE_CURVE('',#275,#274,#326,.T.);
#212=EDGE_CURVE('',#275,#268,#327,.T.);
#213=EDGE_CURVE('',#261,#273,#328,.T.);
#214=EDGE_CURVE('',#267,#274,#329,.T.);
#215=EDGE_CURVE('',#276,#261,#330,.T.);
#216=EDGE_CURVE('',#276,#272,#331,.T.);
#217=EDGE_CURVE('',#277,#278,#332,.T.);
#218=EDGE_CURVE('',#263,#278,#18,.F.);
#219=EDGE_CURVE('',#276,#277,#19,.F.);
#220=EDGE_CURVE('',#279,#279,#14,.T.);
#221=EDGE_CURVE('',#252,#270,#20,.T.);
#222=EDGE_CURVE('',#258,#271,#21,.T.);
#223=EDGE_CURVE('',#280,#246,#22,.F.);
#224=EDGE_CURVE('',#281,#280,#333,.T.);
#225=EDGE_CURVE('',#281,#260,#23,.F.);
#226=EDGE_CURVE('',#280,#282,#334,.T.);
#227=EDGE_CURVE('',#283,#282,#335,.T.);
#228=EDGE_CURVE('',#281,#283,#336,.T.);
#229=EDGE_CURVE('',#284,#282,#24,.T.);
#230=EDGE_CURVE('',#285,#284,#337,.T.);
#231=EDGE_CURVE('',#285,#283,#25,.T.);
#232=EDGE_CURVE('',#286,#286,#15,.T.);
#233=EDGE_CURVE('',#287,#287,#26,.T.);
#234=EDGE_CURVE('',#288,#288,#27,.T.);
#235=EDGE_CURVE('',#284,#278,#338,.T.);
#236=EDGE_CURVE('',#285,#277,#339,.T.);
#237=EDGE_CURVE('',#266,#275,#340,.T.);
#238=EDGE_CURVE('',#245,#264,#28,.T.);
#239=EDGE_CURVE('',#244,#265,#29,.T.);
#240=EDGE_CURVE('',#269,#253,#30,.T.);
#241=EDGE_CURVE('',#268,#254,#31,.T.);
#242=EDGE_CURVE('',#289,#289,#16,.T.);
#243=EDGE_CURVE('',#290,#290,#17,.T.);
#244=VERTEX_POINT('',#685);
#245=VERTEX_POINT('',#686);
#246=VERTEX_POINT('',#688);
#247=VERTEX_POINT('',#690);
#248=VERTEX_POINT('',#692);
#249=VERTEX_POINT('',#694);
#250=VERTEX_POINT('',#696);
#251=VERTEX_POINT('',#700);
#252=VERTEX_POINT('',#701);
#253=VERTEX_POINT('',#703);
#254=VERTEX_POINT('',#705);
#255=VERTEX_POINT('',#707);
#256=VERTEX_POINT('',#709);
#257=VERTEX_POINT('',#713);
#258=VERTEX_POINT('',#718);
#259=VERTEX_POINT('',#720);
#260=VERTEX_POINT('',#726);
#261=VERTEX_POINT('',#730);
#262=VERTEX_POINT('',#731);
#263=VERTEX_POINT('',#733);
#264=VERTEX_POINT('',#735);
#265=VERTEX_POINT('',#737);
#266=VERTEX_POINT('',#739);
#267=VERTEX_POINT('',#741);
#268=VERTEX_POINT('',#745);
#269=VERTEX_POINT('',#746);
#270=VERTEX_POINT('',#748);
#271=VERTEX_POINT('',#750);
#272=VERTEX_POINT('',#752);
#273=VERTEX_POINT('',#754);
#274=VERTEX_POINT('',#756);
#275=VERTEX_POINT('',#758);
#276=VERTEX_POINT('',#765);
#277=VERTEX_POINT('',#769);
#278=VERTEX_POINT('',#770);
#279=VERTEX_POINT('',#793);
#280=VERTEX_POINT('',#798);
#281=VERTEX_POINT('',#800);
#282=VERTEX_POINT('',#804);
#283=VERTEX_POINT('',#806);
#284=VERTEX_POINT('',#810);
#285=VERTEX_POINT('',#812);
#286=VERTEX_POINT('',#834);
#287=VERTEX_POINT('',#836);
#288=VERTEX_POINT('',#838);
#289=VERTEX_POINT('',#872);
#290=VERTEX_POINT('',#892);
#291=LINE('',#684,#341);
#292=LINE('',#687,#342);
#293=LINE('',#689,#343);
#294=LINE('',#691,#344);
#295=LINE('',#693,#345);
#296=LINE('',#695,#346);
#297=LINE('',#697,#347);
#298=LINE('',#699,#348);
#299=LINE('',#702,#349);
#300=LINE('',#704,#350);
#301=LINE('',#706,#351);
#302=LINE('',#708,#352);
#303=LINE('',#710,#353);
#304=LINE('',#712,#354);
#305=LINE('',#714,#355);
#306=LINE('',#715,#356);
#307=LINE('',#717,#357);
#308=LINE('',#719,#358);
#309=LINE('',#721,#359);
#310=LINE('',#723,#360);
#311=LINE('',#725,#361);
#312=LINE('',#727,#362);
#313=LINE('',#729,#363);
#314=LINE('',#732,#364);
#315=LINE('',#734,#365);
#316=LINE('',#736,#366);
#317=LINE('',#738,#367);
#318=LINE('',#740,#368);
#319=LINE('',#742,#369);
#320=LINE('',#744,#370);
#321=LINE('',#747,#371);
#322=LINE('',#749,#372);
#323=LINE('',#751,#373);
#324=LINE('',#753,#374);
#325=LINE('',#755,#375);
#326=LINE('',#757,#376);
#327=LINE('',#759,#377);
#328=LINE('',#761,#378);
#329=LINE('',#762,#379);
#330=LINE('',#764,#380);
#331=LINE('',#766,#381);
#332=LINE('',#768,#382);
#333=LINE('',#799,#383);
#334=LINE('',#803,#384);
#335=LINE('',#805,#385);
#336=LINE('',#807,#386);
#337=LINE('',#811,#387);
#338=LINE('',#840,#388);
#339=LINE('',#841,#389);
#340=LINE('',#844,#390);
#341=VECTOR('',#558,1.);
#342=VECTOR('',#559,1.);
#343=VECTOR('',#560,1.);
#344=VECTOR('',#561,1.);
#345=VECTOR('',#562,1.);
#346=VECTOR('',#563,1.);
#347=VECTOR('',#564,1.);
#348=VECTOR('',#567,1.);
#349=VECTOR('',#568,1.);
#350=VECTOR('',#569,1.);
#351=VECTOR('',#570,1.);
#352=VECTOR('',#571,1.);
#353=VECTOR('',#572,1.);
#354=VECTOR('',#575,1.);
#355=VECTOR('',#576,1.);
#356=VECTOR('',#577,1.);
#357=VECTOR('',#580,1.);
#358=VECTOR('',#581,1.);
#359=VECTOR('',#582,1.);
#360=VECTOR('',#585,1.);
#361=VECTOR('',#588,1.);
#362=VECTOR('',#589,1.);
#363=VECTOR('',#592,1.);
#364=VECTOR('',#593,1.);
#365=VECTOR('',#594,1.);
#366=VECTOR('',#595,1.);
#367=VECTOR('',#596,1.);
#368=VECTOR('',#597,1.);
#369=VECTOR('',#598,1.);
#370=VECTOR('',#601,1.);
#371=VECTOR('',#602,1.);
#372=VECTOR('',#603,1.);
#373=VECTOR('',#604,1.);
#374=VECTOR('',#605,1.);
#375=VECTOR('',#606,1.);
#376=VECTOR('',#607,1.);
#377=VECTOR('',#608,1.);
#378=VECTOR('',#611,1.);
#379=VECTOR('',#612,1.);
#380=VECTOR('',#615,1.);
#381=VECTOR('',#616,1.);
#382=VECTOR('',#619,1.);
#383=VECTOR('',#634,1.);
#384=VECTOR('',#639,1.);
#385=VECTOR('',#640,1.);
#386=VECTOR('',#641,1.);
#387=VECTOR('',#646,1.);
#388=VECTOR('',#657,1.);
#389=VECTOR('',#658,1.);
#390=VECTOR('',#663,1.);
#391=EDGE_LOOP('',(#40,#41,#42,#43,#44,#45,#46));
#392=EDGE_LOOP('',(#47,#48,#49,#50,#51,#52));
#393=EDGE_LOOP('',(#53,#54,#55,#56,#57));
#394=EDGE_LOOP('',(#58,#59,#60,#61));
#395=EDGE_LOOP('',(#62,#63,#64,#65));
#396=EDGE_LOOP('',(#66,#67,#68,#69));
#397=EDGE_LOOP('',(#70,#71,#72,#73,#74,#75,#76));
#398=EDGE_LOOP('',(#77,#78,#79,#80,#81,#82,#83,#84));
#399=EDGE_LOOP('',(#85,#86,#87,#88));
#400=EDGE_LOOP('',(#89,#90,#91,#92));
#401=EDGE_LOOP('',(#93,#94,#95,#96,#97,#98));
#402=EDGE_LOOP('',(#99));
#403=EDGE_LOOP('',(#100,#101,#102,#103,#104));
#404=EDGE_LOOP('',(#105,#106,#107,#108,#109,#110));
#405=EDGE_LOOP('',(#111,#112,#113,#114));
#406=EDGE_LOOP('',(#115,#116,#117,#118));
#407=EDGE_LOOP('',(#119));
#408=EDGE_LOOP('',(#120));
#409=EDGE_LOOP('',(#121));
#410=EDGE_LOOP('',(#122,#123,#124,#125));
#411=EDGE_LOOP('',(#126));
#412=EDGE_LOOP('',(#127,#128,#129,#130,#131,#132,#133,#134,#135,#136));
#413=EDGE_LOOP('',(#137,#138,#139,#140));
#414=EDGE_LOOP('',(#141,#142,#143,#144));
#415=EDGE_LOOP('',(#145,#146,#147,#148));
#416=EDGE_LOOP('',(#149,#150,#151,#152,#153,#154,#155,#156));
#417=EDGE_LOOP('',(#157));
#418=EDGE_LOOP('',(#158));
#419=EDGE_LOOP('',(#159));
#420=EDGE_LOOP('',(#160));
#421=EDGE_LOOP('',(#161));
#422=EDGE_LOOP('',(#162));
#423=EDGE_LOOP('',(#163,#164,#165,#166,#167,#168,#169,#170));
#424=EDGE_LOOP('',(#171,#172,#173,#174));
#425=EDGE_LOOP('',(#175));
#426=FACE_BOUND('',#391,.T.);
#427=FACE_BOUND('',#392,.T.);
#428=FACE_BOUND('',#393,.T.);
#429=FACE_BOUND('',#394,.T.);
#430=FACE_BOUND('',#395,.T.);
#431=FACE_BOUND('',#396,.T.);
#432=FACE_BOUND('',#397,.T.);
#433=FACE_BOUND('',#398,.T.);
#434=FACE_BOUND('',#399,.T.);
#435=FACE_BOUND('',#400,.T.);
#436=FACE_BOUND('',#401,.T.);
#437=FACE_BOUND('',#402,.T.);
#438=FACE_BOUND('',#403,.T.);
#439=FACE_BOUND('',#404,.T.);
#440=FACE_BOUND('',#405,.T.);
#441=FACE_BOUND('',#406,.T.);
#442=FACE_BOUND('',#407,.T.);
#443=FACE_BOUND('',#408,.T.);
#444=FACE_BOUND('',#409,.T.);
#445=FACE_BOUND('',#410,.T.);
#446=FACE_BOUND('',#411,.T.);
#447=FACE_BOUND('',#412,.T.);
#448=FACE_BOUND('',#413,.T.);
#449=FACE_BOUND('',#414,.T.);
#450=FACE_BOUND('',#415,.T.);
#451=FACE_BOUND('',#416,.T.);
#452=FACE_BOUND('',#417,.T.);
#453=FACE_BOUND('',#418,.T.);
#454=FACE_BOUND('',#419,.T.);
#455=FACE_BOUND('',#420,.T.);
#456=FACE_BOUND('',#421,.T.);
#457=FACE_BOUND('',#422,.T.);
#458=FACE_BOUND('',#423,.T.);
#459=FACE_BOUND('',#424,.T.);
#460=FACE_BOUND('',#425,.T.);
#461=PLANE('',#516);
#462=PLANE('',#517);
#463=PLANE('',#518);
#464=PLANE('',#519);
#465=PLANE('',#520);
#466=PLANE('',#521);
#467=PLANE('',#522);
#468=PLANE('',#523);
#469=PLANE('',#524);
#470=PLANE('',#525);
#471=PLANE('',#535);
#472=PLANE('',#542);
#473=PLANE('',#543);
#474=PLANE('',#544);
#475=PLANE('',#551);
#476=PLANE('',#553);
#477=ADVANCED_FACE('',(#426),#461,.T.);
#478=ADVANCED_FACE('',(#427),#462,.F.);
#479=ADVANCED_FACE('',(#428),#463,.T.);
#480=ADVANCED_FACE('',(#429),#464,.F.);
#481=ADVANCED_FACE('',(#430),#465,.T.);
#482=ADVANCED_FACE('',(#431),#466,.F.);
#483=ADVANCED_FACE('',(#432),#467,.T.);
#484=ADVANCED_FACE('',(#433),#468,.T.);
#485=ADVANCED_FACE('',(#434),#469,.T.);
#486=ADVANCED_FACE('',(#435),#470,.F.);
#487=ADVANCED_FACE('',(#436),#32,.F.);
#488=ADVANCED_FACE('',(#437,#438),#33,.F.);
#489=ADVANCED_FACE('',(#439),#34,.F.);
#490=ADVANCED_FACE('',(#440),#471,.F.);
#491=ADVANCED_FACE('',(#441),#35,.F.);
#492=ADVANCED_FACE('',(#442,#443,#444),#36,.T.);
#493=ADVANCED_FACE('',(#445),#472,.F.);
#494=ADVANCED_FACE('',(#446,#447),#473,.T.);
#495=ADVANCED_FACE('',(#448),#474,.T.);
#496=ADVANCED_FACE('',(#449),#37,.T.);
#497=ADVANCED_FACE('',(#450),#38,.F.);
#498=ADVANCED_FACE('',(#451),#475,.T.);
#499=ADVANCED_FACE('',(#452,#453),#39,.F.);
#500=ADVANCED_FACE('',(#454,#455),#12,.T.);
#501=ADVANCED_FACE('',(#456,#457),#13,.T.);
#502=ADVANCED_FACE('',(#458,#459,#460),#476,.F.);
#503=CLOSED_SHELL('',(#477,#478,#479,#480,#481,#482,#483,#484,#485,#486,
#487,#488,#489,#490,#491,#492,#493,#494,#495,#496,#497,#498,#499,#500,#501,
#502));
#504=STYLED_ITEM('',(#505),#512);
#505=PRESENTATION_STYLE_ASSIGNMENT((#506));
#506=SURFACE_STYLE_USAGE(.BOTH.,#507);
#507=SURFACE_SIDE_STYLE('',(#508));
#508=SURFACE_STYLE_FILL_AREA(#509);
#509=FILL_AREA_STYLE('',(#510));
#510=FILL_AREA_STYLE_COLOUR('',#511);
#511=COLOUR_RGB('',0.498039215686275,0.498039215686275,0.498039215686275);
#512=MANIFOLD_SOLID_BREP('Part 4',#503);
#513=SHAPE_DEFINITION_REPRESENTATION(#1014,#514);
#514=SHAPE_REPRESENTATION('Part 4',(#515),#1009);
#515=AXIS2_PLACEMENT_3D('',#682,#554,#555);
#516=AXIS2_PLACEMENT_3D('',#683,#556,#557);
#517=AXIS2_PLACEMENT_3D('',#698,#565,#566);
#518=AXIS2_PLACEMENT_3D('',#711,#573,#574);
#519=AXIS2_PLACEMENT_3D('',#716,#578,#579);
#520=AXIS2_PLACEMENT_3D('',#722,#583,#584);
#521=AXIS2_PLACEMENT_3D('',#724,#586,#587);
#522=AXIS2_PLACEMENT_3D('',#728,#590,#591);
#523=AXIS2_PLACEMENT_3D('',#743,#599,#600);
#524=AXIS2_PLACEMENT_3D('',#760,#609,#610);
#525=AXIS2_PLACEMENT_3D('',#763,#613,#614);
#526=AXIS2_PLACEMENT_3D('',#767,#617,#618);
#527=AXIS2_PLACEMENT_3D('',#771,#620,#621);
#528=AXIS2_PLACEMENT_3D('',#772,#622,#623);
#529=AXIS2_PLACEMENT_3D('',#773,#624,#625);
#530=AXIS2_PLACEMENT_3D('',#794,#626,#627);
#531=AXIS2_PLACEMENT_3D('',#795,#628,#629);
#532=AXIS2_PLACEMENT_3D('',#796,#630,#631);
#533=AXIS2_PLACEMENT_3D('',#797,#632,#633);
#534=AXIS2_PLACEMENT_3D('',#801,#635,#636);
#535=AXIS2_PLACEMENT_3D('',#802,#637,#638);
#536=AXIS2_PLACEMENT_3D('',#808,#642,#643);
#537=AXIS2_PLACEMENT_3D('',#809,#644,#645);
#538=AXIS2_PLACEMENT_3D('',#813,#647,#648);
#539=AXIS2_PLACEMENT_3D('',#814,#649,#650);
#540=AXIS2_PLACEMENT_3D('',#835,#651,#652);
#541=AXIS2_PLACEMENT_3D('',#837,#653,#654);
#542=AXIS2_PLACEMENT_3D('',#839,#655,#656);
#543=AXIS2_PLACEMENT_3D('',#842,#659,#660);
#544=AXIS2_PLACEMENT_3D('',#843,#661,#662);
#545=AXIS2_PLACEMENT_3D('',#845,#664,#665);
#546=AXIS2_PLACEMENT_3D('',#846,#666,#667);
#547=AXIS2_PLACEMENT_3D('',#847,#668,#669);
#548=AXIS2_PLACEMENT_3D('',#848,#670,#671);
#549=AXIS2_PLACEMENT_3D('',#849,#672,#673);
#550=AXIS2_PLACEMENT_3D('',#850,#674,#675);
#551=AXIS2_PLACEMENT_3D('',#851,#676,#677);
#552=AXIS2_PLACEMENT_3D('',#852,#678,#679);
#553=AXIS2_PLACEMENT_3D('',#1007,#680,#681);
#554=DIRECTION('',(0.,0.,1.));
#555=DIRECTION('',(1.,0.,0.));
#556=DIRECTION('',(0.,-1.,0.));
#557=DIRECTION('',(0.,0.,-1.));
#558=DIRECTION('',(0.,0.,1.));
#559=DIRECTION('',(1.,0.,0.));
#560=DIRECTION('',(0.,0.,-1.));
#561=DIRECTION('',(0.,0.,1.));
#562=DIRECTION('',(1.,0.,0.));
#563=DIRECTION('',(0.,0.,1.));
#564=DIRECTION('',(1.,-1.86274366557099E-17,0.));
#565=DIRECTION('',(0.,-1.,0.));
#566=DIRECTION('',(0.,0.,-1.));
#567=DIRECTION('',(0.,0.,1.));
#568=DIRECTION('',(1.,0.,0.));
#569=DIRECTION('',(0.,0.,1.));
#570=DIRECTION('',(1.,0.,0.));
#571=DIRECTION('',(0.,0.,1.));
#572=DIRECTION('',(1.,0.,0.));
#573=DIRECTION('',(0.,0.,-1.));
#574=DIRECTION('',(1.,0.,0.));
#575=DIRECTION('',(1.,0.,0.));
#576=DIRECTION('',(0.,-1.,0.));
#577=DIRECTION('',(0.,-1.,0.));
#578=DIRECTION('',(-1.,0.,0.));
#579=DIRECTION('',(0.,0.,1.));
#580=DIRECTION('',(0.,0.,1.));
#581=DIRECTION('',(0.,0.,1.));
#582=DIRECTION('',(0.,-1.,0.));
#583=DIRECTION('',(-1.,0.,0.));
#584=DIRECTION('',(0.,0.,1.));
#585=DIRECTION('',(0.,-1.,0.));
#586=DIRECTION('',(0.,-1.,0.));
#587=DIRECTION('',(0.,0.,-1.));
#588=DIRECTION('',(0.,0.,1.));
#589=DIRECTION('',(1.,0.,0.));
#590=DIRECTION('',(0.,-1.,0.));
#591=DIRECTION('',(0.,0.,-1.));
#592=DIRECTION('',(0.,0.,1.));
#593=DIRECTION('',(0.,0.,-1.));
#594=DIRECTION('',(1.,0.,0.));
#595=DIRECTION('',(0.,0.,1.));
#596=DIRECTION('',(1.,0.,0.));
#597=DIRECTION('',(0.,0.,1.));
#598=DIRECTION('',(1.,0.,0.));
#599=DIRECTION('',(0.,1.,0.));
#600=DIRECTION('',(0.,0.,1.));
#601=DIRECTION('',(0.,0.,1.));
#602=DIRECTION('',(-1.,0.,0.));
#603=DIRECTION('',(0.,0.,1.));
#604=DIRECTION('',(-1.,0.,0.));
#605=DIRECTION('',(0.,0.,1.));
#606=DIRECTION('',(-1.,0.,0.));
#607=DIRECTION('',(0.,0.,1.));
#608=DIRECTION('',(-1.,0.,0.));
#609=DIRECTION('',(0.,0.,-1.));
#610=DIRECTION('',(1.,0.,0.));
#611=DIRECTION('',(0.,1.,0.));
#612=DIRECTION('',(0.,1.,0.));
#613=DIRECTION('',(1.,0.,0.));
#614=DIRECTION('',(0.,0.,-1.));
#615=DIRECTION('',(0.,0.,1.));
#616=DIRECTION('',(0.,1.,0.));
#617=DIRECTION('',(0.,0.,1.));
#618=DIRECTION('',(1.,0.,0.));
#619=DIRECTION('',(0.,0.,1.));
#620=DIRECTION('',(0.,0.,1.));
#621=DIRECTION('',(1.,0.,0.));
#622=DIRECTION('',(0.,0.,1.));
#623=DIRECTION('',(1.,0.,0.));
#624=DIRECTION('',(0.,0.,1.));
#625=DIRECTION('',(1.,0.,0.));
#626=DIRECTION('',(0.,0.,-1.));
#627=DIRECTION('',(-1.,0.,0.));
#628=DIRECTION('',(0.,0.,-1.));
#629=DIRECTION('',(-1.,0.,0.));
#630=DIRECTION('',(0.,0.,1.));
#631=DIRECTION('',(1.,0.,0.));
#632=DIRECTION('',(0.,0.,1.));
#633=DIRECTION('',(1.,0.,0.));
#634=DIRECTION('',(0.,0.,1.));
#635=DIRECTION('',(0.,0.,1.));
#636=DIRECTION('',(1.,0.,0.));
#637=DIRECTION('',(0.0134714536477503,-0.999909255851058,0.));
#638=DIRECTION('',(0.999909255851058,0.0134714536477503,0.));
#639=DIRECTION('',(0.999909255851058,0.0134714536477503,0.));
#640=DIRECTION('',(0.,0.,1.));
#641=DIRECTION('',(0.999909255851058,0.0134714536477503,0.));
#642=DIRECTION('',(0.,0.,1.));
#643=DIRECTION('',(1.,0.,0.));
#644=DIRECTION('',(0.,0.,-1.));
#645=DIRECTION('',(-1.,0.,0.));
#646=DIRECTION('',(0.,0.,1.));
#647=DIRECTION('',(0.,0.,-1.));
#648=DIRECTION('',(-1.,0.,0.));
#649=DIRECTION('',(0.,0.,1.));
#650=DIRECTION('',(1.,0.,0.));
#651=DIRECTION('',(0.,0.,-1.));
#652=DIRECTION('',(-1.,0.,0.));
#653=DIRECTION('',(0.,0.,-1.));
#654=DIRECTION('',(-1.,0.,0.));
#655=DIRECTION('',(0.0134714536477503,-0.999909255851058,0.));
#656=DIRECTION('',(0.999909255851058,0.0134714536477503,0.));
#657=DIRECTION('',(0.999909255851058,0.0134714536477503,0.));
#658=DIRECTION('',(0.999909255851058,0.0134714536477503,0.));
#659=DIRECTION('',(0.,0.,-1.));
#660=DIRECTION('',(1.,0.,0.));
#661=DIRECTION('',(1.,0.,0.));
#662=DIRECTION('',(0.,0.,-1.));
#663=DIRECTION('',(0.,1.,0.));
#664=DIRECTION('',(0.,0.,1.));
#665=DIRECTION('',(1.,0.,0.));
#666=DIRECTION('',(0.,0.,1.));
#667=DIRECTION('',(1.,0.,0.));
#668=DIRECTION('',(0.,0.,1.));
#669=DIRECTION('',(1.,0.,0.));
#670=DIRECTION('',(0.,0.,1.));
#671=DIRECTION('',(1.,0.,0.));
#672=DIRECTION('',(0.,0.,-1.));
#673=DIRECTION('',(-1.,0.,0.));
#674=DIRECTION('',(0.,0.,-1.));
#675=DIRECTION('',(-1.,0.,0.));
#676=DIRECTION('',(0.,0.,-1.));
#677=DIRECTION('',(1.,0.,0.));
#678=DIRECTION('',(0.,-1.,0.));
#679=DIRECTION('',(0.,0.,-1.));
#680=DIRECTION('',(0.,0.,-1.));
#681=DIRECTION('',(1.,0.,0.));
#682=CARTESIAN_POINT('',(0.,0.,0.));
#683=CARTESIAN_POINT('',(-0.0672222004388313,-0.0023,-0.1288));
#684=CARTESIAN_POINT('',(-0.0252838868253155,-0.0023,-0.132));
#685=CARTESIAN_POINT('',(-0.0252838868253155,-0.0023,-0.132));
#686=CARTESIAN_POINT('',(-0.0252838868253155,-0.0023,-0.086));
#687=CARTESIAN_POINT('',(-0.0672222004388313,-0.0023,-0.086));
#688=CARTESIAN_POINT('',(-0.0684881270712301,-0.00230001316643302,-0.086));
#689=CARTESIAN_POINT('',(-0.0684881270712301,-0.00230001316643302,-0.086));
#690=CARTESIAN_POINT('',(-0.0684878405020479,-0.00230003223309884,-0.106000525497625));
#691=CARTESIAN_POINT('',(-0.0684876783260626,-0.0023000535733345,-0.132));
#692=CARTESIAN_POINT('',(-0.0684878062616433,-0.00230001768985377,-0.1288));
#693=CARTESIAN_POINT('',(-0.0672222004388313,-0.0023,-0.1288));
#694=CARTESIAN_POINT('',(-0.0659222004388313,-0.0023,-0.1288));
#695=CARTESIAN_POINT('',(-0.0659222004388313,-0.0023,-0.132));
#696=CARTESIAN_POINT('',(-0.0659222004388313,-0.0023,-0.132));
#697=CARTESIAN_POINT('',(-4.28431043081328E-20,-0.0023,-0.132));
#698=CARTESIAN_POINT('',(-0.024442813193921,0.,-0.1288));
#699=CARTESIAN_POINT('',(-0.0685222004388313,0.,-0.1288));
#700=CARTESIAN_POINT('',(-0.0685222004388313,0.,-0.1288));
#701=CARTESIAN_POINT('',(-0.0685222004388313,0.,-0.086));
#702=CARTESIAN_POINT('',(-0.024442813193921,0.,-0.086));
#703=CARTESIAN_POINT('',(-0.0234973430076022,0.,-0.086));
#704=CARTESIAN_POINT('',(-0.0234973430076022,0.,-0.132));
#705=CARTESIAN_POINT('',(-0.0234973430076022,0.,-0.132));
#706=CARTESIAN_POINT('',(-0.024442813193921,0.,-0.132));
#707=CARTESIAN_POINT('',(-0.0659222004388313,0.,-0.132));
#708=CARTESIAN_POINT('',(-0.0659222004388313,0.,-0.132));
#709=CARTESIAN_POINT('',(-0.0659222004388313,0.,-0.1288));
#710=CARTESIAN_POINT('',(-0.024442813193921,0.,-0.1288));
#711=CARTESIAN_POINT('',(0.,0.,-0.1288));
#712=CARTESIAN_POINT('',(-0.0672222004388313,-0.0023,-0.1288));
#713=CARTESIAN_POINT('',(-0.0685222004388313,-0.0023,-0.1288));
#714=CARTESIAN_POINT('',(-0.0685222004388313,-0.00115,-0.1288));
#715=CARTESIAN_POINT('',(-0.0659222004388313,-0.00115,-0.1288));
#716=CARTESIAN_POINT('',(-0.0685222004388313,-0.00115,-0.132));
#717=CARTESIAN_POINT('',(-0.0685222004388313,0.,-0.132));
#718=CARTESIAN_POINT('',(-0.0685222004388313,0.,-0.132));
#719=CARTESIAN_POINT('',(-0.0685222004388313,-0.0023,-0.132));
#720=CARTESIAN_POINT('',(-0.0685222004388313,-0.0023,-0.132));
#721=CARTESIAN_POINT('',(-0.0685222004388313,-0.00115,-0.132));
#722=CARTESIAN_POINT('',(-0.0659222004388313,-0.00115,-0.132));
#723=CARTESIAN_POINT('',(-0.0659222004388313,-0.00115,-0.132));
#724=CARTESIAN_POINT('',(-0.0672222004388313,-0.0023,-0.132));
#725=CARTESIAN_POINT('',(-0.0684876783260626,-0.0023000535733345,-0.132));
#726=CARTESIAN_POINT('',(-0.0684876783260626,-0.0023000535733345,-0.132));
#727=CARTESIAN_POINT('',(-0.0672222004388313,-0.0023,-0.132));
#728=CARTESIAN_POINT('',(0.0469030436320734,-0.00230000000000587,-0.1288));
#729=CARTESIAN_POINT('',(0.0684847194082825,-0.00230000060326119,-0.1288));
#730=CARTESIAN_POINT('',(0.0684864626834692,-0.00230013754011923,-0.128800297786638));
#731=CARTESIAN_POINT('',(0.0684862382774529,-0.00230002490038969,-0.106));
#732=CARTESIAN_POINT('',(0.0684877571466233,-0.00230004980077351,-0.086));
#733=CARTESIAN_POINT('',(0.0684877571466233,-0.00230004980077351,-0.086));
#734=CARTESIAN_POINT('',(0.0469030436320734,-0.00230000000000587,-0.086));
#735=CARTESIAN_POINT('',(0.025283886825315,-0.00230000000000587,-0.086));
#736=CARTESIAN_POINT('',(0.025283886825315,-0.00230000000000587,-0.132));
#737=CARTESIAN_POINT('',(0.025283886825315,-0.00230000000000587,-0.132));
#738=CARTESIAN_POINT('',(0.0469030436320734,-0.00230000000000587,-0.132));
#739=CARTESIAN_POINT('',(0.0658847385134159,-0.00230000000000587,-0.132));
#740=CARTESIAN_POINT('',(0.0658847385134159,-0.00230000000000587,-0.132));
#741=CARTESIAN_POINT('',(0.0658847385134159,-0.00230000000000587,-0.1288));
#742=CARTESIAN_POINT('',(0.0469030436320734,-0.00230000000000587,-0.1288));
#743=CARTESIAN_POINT('',(0.024442813193921,0.,-0.1288));
#744=CARTESIAN_POINT('',(0.0234973430076022,0.,-0.132));
#745=CARTESIAN_POINT('',(0.0234973430076022,0.,-0.132));
#746=CARTESIAN_POINT('',(0.0234973430076022,0.,-0.086));
#747=CARTESIAN_POINT('',(0.024442813193921,0.,-0.086));
#748=CARTESIAN_POINT('',(0.0685222004388313,-1.7769017580963E-19,-0.086));
#749=CARTESIAN_POINT('',(0.0685222004388313,-1.7769017580963E-19,-0.132));
#750=CARTESIAN_POINT('',(0.0685222004388313,-1.7769017580963E-19,-0.132));
#751=CARTESIAN_POINT('',(0.024442813193921,0.,-0.132));
#752=CARTESIAN_POINT('',(0.0684847385134159,0.,-0.132));
#753=CARTESIAN_POINT('',(0.0684847385134159,0.,-0.132));
#754=CARTESIAN_POINT('',(0.0684847385134159,0.,-0.1288));
#755=CARTESIAN_POINT('',(0.024442813193921,0.,-0.1288));
#756=CARTESIAN_POINT('',(0.0658847385134159,0.,-0.1288));
#757=CARTESIAN_POINT('',(0.0658847385134159,0.,-0.132));
#758=CARTESIAN_POINT('',(0.0658847385134159,0.,-0.132));
#759=CARTESIAN_POINT('',(0.024442813193921,0.,-0.132));
#760=CARTESIAN_POINT('',(0.,0.,-0.1288));
#761=CARTESIAN_POINT('',(0.0684847385134159,-0.0011500193041732,-0.1288));
#762=CARTESIAN_POINT('',(0.0658847385134159,-0.0011500193041732,-0.1288));
#763=CARTESIAN_POINT('',(0.0684847385134159,-0.0011500193041732,-0.132));
#764=CARTESIAN_POINT('',(0.068486463169173,-0.00230010859526645,-0.132));
#765=CARTESIAN_POINT('',(0.068486463169173,-0.00230010859526645,-0.132));
#766=CARTESIAN_POINT('',(0.0684847385134159,-0.0011500193041732,-0.132));
#767=CARTESIAN_POINT('',(0.,1.12661312158781E-18,-0.132));
#768=CARTESIAN_POINT('',(0.00664051703824372,-0.0682042963295304,-0.132));
#769=CARTESIAN_POINT('',(0.00664051703824372,-0.0682042963295304,-0.132));
#770=CARTESIAN_POINT('',(0.00664051703824372,-0.0682042963295304,-0.086));
#771=CARTESIAN_POINT('',(0.,1.12661312158781E-18,-0.086));
#772=CARTESIAN_POINT('',(0.,1.12661312158781E-18,-0.132));
#773=CARTESIAN_POINT('',(0.,-1.7769017580963E-19,-0.132));
#774=CARTESIAN_POINT('',(0.00415155972211366,0.0684334736039064,-0.126934834046396));
#775=CARTESIAN_POINT('',(1.26869748842641E-7,0.0685665661734607,-0.127796964849633));
#776=CARTESIAN_POINT('',(-0.00415206720110903,0.0684334643352385,-0.126934815771718));
#777=CARTESIAN_POINT('',(-0.00761524947137344,0.0681185546238363,-0.124525376273216));
#778=CARTESIAN_POINT('',(-0.00989617273653079,0.0678091360742189,-0.120983012669629));
#779=CARTESIAN_POINT('',(-0.0106938017306938,0.0676815393900628,-0.116837058609777));
#780=CARTESIAN_POINT('',(-0.00990043502637224,0.0678084996172525,-0.112687795483003));
#781=CARTESIAN_POINT('',(-0.00761686328538841,0.0681184455382506,-0.109137093498091));
#782=CARTESIAN_POINT('',(-0.00414974672703259,0.0684336226066321,-0.106726363200645));
#783=CARTESIAN_POINT('',(1.5993499626765E-7,0.0685664966313893,-0.105865701822807));
#784=CARTESIAN_POINT('',(0.00415061753345859,0.0684335934980237,-0.106726482961214));
#785=CARTESIAN_POINT('',(0.00761875824587953,0.0681182257345748,-0.109139063631033));
#786=CARTESIAN_POINT('',(0.00990041722565514,0.0678084893406071,-0.112688539177882));
#787=CARTESIAN_POINT('',(0.0106938210298407,0.0676815380677119,-0.116836726977247));
#788=CARTESIAN_POINT('',(0.00989611330588234,0.0678091516456232,-0.120983665716458));
#789=CARTESIAN_POINT('',(0.00761407600501432,0.0681186916297787,-0.12452657121695));
#790=CARTESIAN_POINT('',(0.00415155972211366,0.0684334736039064,-0.126934834046396));
#791=CARTESIAN_POINT('',(1.26869748842641E-7,0.0685665661734607,-0.127796964849633));
#792=CARTESIAN_POINT('',(-0.00415206720110903,0.0684334643352385,-0.126934815771718));
#793=CARTESIAN_POINT('',(2.65757939447468E-19,0.0685222004388313,-0.127509584869441));
#794=CARTESIAN_POINT('',(0.,-1.7769017580963E-19,-0.086));
#795=CARTESIAN_POINT('',(0.,-1.7769017580963E-19,-0.132));
#796=CARTESIAN_POINT('',(0.,1.12661312158781E-18,-0.132));
#797=CARTESIAN_POINT('',(0.,1.12661312158781E-18,-0.086));
#798=CARTESIAN_POINT('',(-0.0048006515156238,-0.0683584394889698,-0.086));
#799=CARTESIAN_POINT('',(-0.0048006515156238,-0.0683584394889698,-0.132));
#800=CARTESIAN_POINT('',(-0.0048006515156238,-0.0683584394889698,-0.132));
#801=CARTESIAN_POINT('',(0.,1.12661312158781E-18,-0.132));
#802=CARTESIAN_POINT('',(0.000919932761309957,-0.0682813679092501,-0.132));
#803=CARTESIAN_POINT('',(0.000919932761309957,-0.0682813679092501,-0.086));
#804=CARTESIAN_POINT('',(-0.00474528105105091,-0.0683576935006288,-0.086));
#805=CARTESIAN_POINT('',(-0.00474528105105091,-0.0683576935006288,-0.132));
#806=CARTESIAN_POINT('',(-0.00474528105105091,-0.0683576935006288,-0.132));
#807=CARTESIAN_POINT('',(0.000919932761309957,-0.0682813679092501,-0.132));
#808=CARTESIAN_POINT('',(0.,-1.7769017580963E-19,-0.132));
#809=CARTESIAN_POINT('',(0.,-1.7769017580963E-19,-0.086));
#810=CARTESIAN_POINT('',(0.00658514657367082,-0.0682050423178715,-0.086));
#811=CARTESIAN_POINT('',(0.00658514657367082,-0.0682050423178715,-0.132));
#812=CARTESIAN_POINT('',(0.00658514657367082,-0.0682050423178715,-0.132));
#813=CARTESIAN_POINT('',(0.,-1.7769017580963E-19,-0.132));
#814=CARTESIAN_POINT('',(0.,-3.91834163545579E-19,-0.132));
#815=CARTESIAN_POINT('',(-0.00426306682237693,0.0719309666935782,-0.126959933572829));
#816=CARTESIAN_POINT('',(2.42511282453933E-6,0.0720635507198687,-0.127783603738506));
#817=CARTESIAN_POINT('',(0.00425336637107875,0.0719314533785157,-0.126963160689793));
#818=CARTESIAN_POINT('',(0.00788220374839663,0.0716093616902754,-0.124621813742273));
#819=CARTESIAN_POINT('',(0.0103443124917,0.071278772256716,-0.121069927872976));
#820=CARTESIAN_POINT('',(0.0112198235443088,0.0711388836002993,-0.116827629654858));
#821=CARTESIAN_POINT('',(0.0103418670038272,0.0712791963985163,-0.112586716849841));
#822=CARTESIAN_POINT('',(0.00787946890225224,0.0716094342089336,-0.10904031456804));
#823=CARTESIAN_POINT('',(0.00426245559743085,0.0719312003161247,-0.106700688940571));
#824=CARTESIAN_POINT('',(-1.39379607073762E-5,0.0720634940053472,-0.105878958090038));
#825=CARTESIAN_POINT('',(-0.00424930718475582,0.0719314445138674,-0.106699145659705));
#826=CARTESIAN_POINT('',(-0.00787589164200477,0.0716100906625921,-0.109035135887263));
#827=CARTESIAN_POINT('',(-0.0103385765483391,0.0712796260234216,-0.112579255625815));
#828=CARTESIAN_POINT('',(-0.0112211831138339,0.0711386818288835,-0.116826834952113));
#829=CARTESIAN_POINT('',(-0.0103421631237249,0.0712791499546998,-0.121076099288757));
#830=CARTESIAN_POINT('',(-0.00787894925929387,0.0716095356575645,-0.12462239962216));
#831=CARTESIAN_POINT('',(-0.00426306682237693,0.0719309666935782,-0.126959933572829));
#832=CARTESIAN_POINT('',(2.42511282453933E-6,0.0720635507198687,-0.127783603738506));
#833=CARTESIAN_POINT('',(0.00425336637107875,0.0719314533785157,-0.126963160689793));
#834=CARTESIAN_POINT('',(-1.80677241138184E-18,0.0720194371585948,-0.127509584869441));
#835=CARTESIAN_POINT('',(0.,-3.91834163545579E-19,-0.132));
#836=CARTESIAN_POINT('',(-0.0720194371585948,-3.91834163545579E-19,-0.132));
#837=CARTESIAN_POINT('',(0.,-3.91834163545579E-19,-0.086));
#838=CARTESIAN_POINT('',(-0.0720194371585948,-3.91834163545579E-19,-0.086));
#839=CARTESIAN_POINT('',(0.000919932761309957,-0.0682813679092501,-0.132));
#840=CARTESIAN_POINT('',(0.000919932761309957,-0.0682813679092501,-0.086));
#841=CARTESIAN_POINT('',(0.000919932761309957,-0.0682813679092501,-0.132));
#842=CARTESIAN_POINT('',(0.,0.,-0.132));
#843=CARTESIAN_POINT('',(0.0658847385134159,-0.0011500193041732,-0.132));
#844=CARTESIAN_POINT('',(0.0658847385134159,-0.0011500193041732,-0.132));
#845=CARTESIAN_POINT('',(0.,1.55458399887283E-18,-0.132));
#846=CARTESIAN_POINT('',(0.,1.55458399887283E-18,-0.086));
#847=CARTESIAN_POINT('',(0.,1.55458399887283E-18,-0.132));
#848=CARTESIAN_POINT('',(0.,-7.28947213723789E-18,-0.132));
#849=CARTESIAN_POINT('',(0.,-7.28947213723789E-18,-0.086));
#850=CARTESIAN_POINT('',(0.,-7.28947213723789E-18,-0.132));
#851=CARTESIAN_POINT('',(0.,0.,-0.132));
#852=CARTESIAN_POINT('',(-1.55663467303895E-18,0.1131,-0.116831096887588));
#853=CARTESIAN_POINT('',(-0.00355727613621379,0.0700753611208274,-0.12539376931799));
#854=CARTESIAN_POINT('',(-7.4237787454196E-8,0.070208124776475,-0.126105041828566));
#855=CARTESIAN_POINT('',(0.00355757308736359,0.0700753337407424,-0.125393581249909));
#856=CARTESIAN_POINT('',(0.00655559246127631,0.069756605314392,-0.123385753213068));
#857=CARTESIAN_POINT('',(0.00856260557177007,0.0694362169454601,-0.120387422391581));
#858=CARTESIAN_POINT('',(0.00927300074913722,0.0693018177858031,-0.116835800387988));
#859=CARTESIAN_POINT('',(0.00856632138570803,0.0694355510397057,-0.113282715534695));
#860=CARTESIAN_POINT('',(0.00655854977621141,0.0697562786490439,-0.110278246324345));
#861=CARTESIAN_POINT('',(0.00355654829373317,0.0700754485364174,-0.108267973044312));
#862=CARTESIAN_POINT('',(-1.81102442384608E-7,0.0702080784942273,-0.107557385825669));
#863=CARTESIAN_POINT('',(-0.00355642971288869,0.0700754314535346,-0.108268128425294));
#864=CARTESIAN_POINT('',(-0.00655739881548241,0.0697564342017249,-0.110277100596995));
#865=CARTESIAN_POINT('',(-0.0085665820309883,0.0694355168419371,-0.113282677827237));
#866=CARTESIAN_POINT('',(-0.00927298883537654,0.0693018192130394,-0.116836806406026));
#867=CARTESIAN_POINT('',(-0.00856239045926575,0.0694362458204541,-0.120387437283987));
#868=CARTESIAN_POINT('',(-0.00655627297320912,0.0697565205739776,-0.123385149871381));
#869=CARTESIAN_POINT('',(-0.00355727613621379,0.0700753611208274,-0.12539376931799));
#870=CARTESIAN_POINT('',(-7.4237787454196E-8,0.070208124776475,-0.126105041828566));
#871=CARTESIAN_POINT('',(0.00355757308736359,0.0700753337407424,-0.125393581249909));
#872=CARTESIAN_POINT('',(3.72584027144203E-18,0.070163865661245,-0.125867919647027));
#873=CARTESIAN_POINT('',(0.00355909915707674,0.0702893847675523,-0.125392939413898));
#874=CARTESIAN_POINT('',(1.98146638142352E-6,0.0704220868313001,-0.12610611840293));
#875=CARTESIAN_POINT('',(-0.00356702502260244,0.0702888995243333,-0.125390104856542));
#876=CARTESIAN_POINT('',(-0.0065571604211084,0.0699714190810819,-0.123383013952513));
#877=CARTESIAN_POINT('',(-0.00856450232570283,0.0696520613887525,-0.120384224844995));
#878=CARTESIAN_POINT('',(-0.00927370618298289,0.0695182458039972,-0.116827556015017));
#879=CARTESIAN_POINT('',(-0.00856160586453837,0.0696525122029334,-0.113272279776381));
#880=CARTESIAN_POINT('',(-0.0065547166306517,0.0699719624057204,-0.11027520178451));
#881=CARTESIAN_POINT('',(-0.0035555197798709,0.0702893590258354,-0.108269503152388));
#882=CARTESIAN_POINT('',(-1.2748281038323E-5,0.0704220304671974,-0.107556378003876));
#883=CARTESIAN_POINT('',(0.00356648051708469,0.0702891480727768,-0.108270644379361));
#884=CARTESIAN_POINT('',(0.00655701579628201,0.0699713838065491,-0.110279212901727));
#885=CARTESIAN_POINT('',(0.00856392735657053,0.0696521705690487,-0.11327758146597));
#886=CARTESIAN_POINT('',(0.00927272616815174,0.0695184172000216,-0.116827894284984));
#887=CARTESIAN_POINT('',(0.00856610145200771,0.0696517173371374,-0.120379160542255));
#888=CARTESIAN_POINT('',(0.00656048839207483,0.0699711609633029,-0.1233818229445));
#889=CARTESIAN_POINT('',(0.00355909915707674,0.0702893847675523,-0.125392939413898));
#890=CARTESIAN_POINT('',(1.98146638142352E-6,0.0704220868313001,-0.12610611840293));
#891=CARTESIAN_POINT('',(-0.00356702502260244,0.0702888995243333,-0.125390104856542));
#892=CARTESIAN_POINT('',(-1.18394578209626E-18,0.0703777719361811,-0.125867919647027));
#893=CARTESIAN_POINT('',(-1.61759844231962E-5,0.070163863057575,-0.125867905169445));
#894=CARTESIAN_POINT('',(-1.57287510485949E-5,0.0685221986966347,-0.125867905969998));
#895=CARTESIAN_POINT('',(-1.86673431679893E-5,0.0685221978960809,-0.127509567761804));
#896=CARTESIAN_POINT('',(-0.00120137644978122,0.0701634782993867,-0.125865765857297));
#897=CARTESIAN_POINT('',(-0.00116955656182252,0.068521939561983,-0.125865879827095));
#898=CARTESIAN_POINT('',(-0.00138640752088308,0.0685218221403061,-0.127507039813688));
#899=CARTESIAN_POINT('',(-0.00357126739433805,0.070074328933089,-0.125387997232117));
#900=CARTESIAN_POINT('',(-0.00344834865895166,0.0684641537301937,-0.125427308227709));
#901=CARTESIAN_POINT('',(-0.00412129934417848,0.068434758654153,-0.126942477836774));
#902=CARTESIAN_POINT('',(-0.00656834869981517,0.0697548808004845,-0.123373516771422));
#903=CARTESIAN_POINT('',(-0.00644929895445496,0.068243287424475,-0.123494081657054));
#904=CARTESIAN_POINT('',(-0.00757997881418828,0.068122784837348,-0.124562038830516));
#905=CARTESIAN_POINT('',(-0.00856960409602024,0.0694349370808553,-0.12037009039306));
#906=CARTESIAN_POINT('',(-0.00853625567924937,0.0680065528953069,-0.120478357497831));
#907=CARTESIAN_POINT('',(-0.00988945935462324,0.0678103270290592,-0.12101299805153));
#908=CARTESIAN_POINT('',(-0.00927261399436138,0.0693018872020565,-0.116819843960945));
#909=CARTESIAN_POINT('',(-0.00928674871375605,0.0679042111537506,-0.116819470253362));
#910=CARTESIAN_POINT('',(-0.0107007439527964,0.0676803901965103,-0.116817799709462));
#911=CARTESIAN_POINT('',(-0.00856083341525033,0.0694365598745716,-0.113268775030647));
#912=CARTESIAN_POINT('',(-0.0085268785385445,0.0680077990137657,-0.113159881658843));
#913=CARTESIAN_POINT('',(-0.0098793378495905,0.0678119118533167,-0.112621629450916));
#914=CARTESIAN_POINT('',(-0.00654550510458276,0.0697581101438038,-0.110264709752759));
#915=CARTESIAN_POINT('',(-0.00642575747396131,0.0682456176179154,-0.110144440969177));
#916=CARTESIAN_POINT('',(-0.00755361694215392,0.0681259386218228,-0.109071833707371));
#917=CARTESIAN_POINT('',(-0.00353898735090377,0.0700767308771436,-0.108260912689842));
#918=CARTESIAN_POINT('',(-0.00341672876585267,0.0684657464262858,-0.108222516575237));
#919=CARTESIAN_POINT('',(-0.00408404766091144,0.0684371043985102,-0.106704018887491));
#920=CARTESIAN_POINT('',(1.68827669693119E-5,0.0702080059361426,-0.107557781340467));
#921=CARTESIAN_POINT('',(1.61850955961793E-5,0.0685511651396952,-0.10757447839562));
#922=CARTESIAN_POINT('',(1.94829814616674E-5,0.0685653079377619,-0.105873153896127));
#923=CARTESIAN_POINT('',(0.00357030082104282,0.0700744231426377,-0.108273696813853));
#924=CARTESIAN_POINT('',(0.00344737384482484,0.0684642194821085,-0.108234412772643));
#925=CARTESIAN_POINT('',(0.00412018390323052,0.0684348506594255,-0.106719125426397));
#926=CARTESIAN_POINT('',(0.00657088260623594,0.0697546120687315,-0.11029007095589));
#927=CARTESIAN_POINT('',(0.00645175697439852,0.0682431092705508,-0.11016934554679));
#928=CARTESIAN_POINT('',(0.00758290298247842,0.0681225223932698,-0.109101802127694));
#929=CARTESIAN_POINT('',(0.00857348890481077,0.0694342445174509,-0.113300136360882));
#930=CARTESIAN_POINT('',(0.00854034045029036,0.0680060327697124,-0.113191944779981));
#931=CARTESIAN_POINT('',(0.00989394248572287,0.0678096506699681,-0.112658688005336));
#932=CARTESIAN_POINT('',(0.00927260859365427,0.0693018919238319,-0.116852651540493));
#933=CARTESIAN_POINT('',(0.0092867370230432,0.0679042153669545,-0.116853428863141));
#934=CARTESIAN_POINT('',(0.0107007377202945,0.0676803948078076,-0.116856567244607));
#935=CARTESIAN_POINT('',(0.00855686845148199,0.0694372520668301,-0.12040115899868));
#936=CARTESIAN_POINT('',(0.00852273241292835,0.0680083163094569,-0.120510100255502));
#937=CARTESIAN_POINT('',(0.00987476221837228,0.0678125878499459,-0.121049710703815));
#938=CARTESIAN_POINT('',(0.00654400877812432,0.0697582478373445,-0.123397904172316));
#939=CARTESIAN_POINT('',(0.00642435177372202,0.0682457019306418,-0.12351802640619));
#940=CARTESIAN_POINT('',(0.00755189015763434,0.0681260730936668,-0.124590856543809));
#941=CARTESIAN_POINT('',(0.00353993539781007,0.0700766374822188,-0.125400833105007));
#942=CARTESIAN_POINT('',(0.00341766484731477,0.0684656834899546,-0.125439272072027));
#943=CARTESIAN_POINT('',(0.00408514172211207,0.0684370131888014,-0.126957645525468));
#944=CARTESIAN_POINT('',(0.00116902448093482,0.0701642478157633,-0.125870044481594));
#945=CARTESIAN_POINT('',(0.00113818204947107,0.0685224578499248,-0.125869932258632));
#946=CARTESIAN_POINT('',(0.0013490728345471,0.0685225736518556,-0.127512095709919));
#947=CARTESIAN_POINT('',(-1.61759844231962E-5,0.070163863057575,-0.125867905169445));
#948=CARTESIAN_POINT('',(-1.57287510485949E-5,0.0685221986966347,-0.125867905969998));
#949=CARTESIAN_POINT('',(-1.86673431679893E-5,0.0685221978960809,-0.127509567761804));
#950=CARTESIAN_POINT('',(-0.00205694641069607,0.070335786564141,-0.125630706938553));
#951=CARTESIAN_POINT('',(-0.00211113264246263,0.0719894723656169,-0.125618040675582));
#952=CARTESIAN_POINT('',(-0.00248731727069444,0.0719764724158922,-0.127229279155362));
#953=CARTESIAN_POINT('',(-0.000903572050373757,0.0703827566068363,-0.125900191576342));
#954=CARTESIAN_POINT('',(-0.000936266315890275,0.0720225862329162,-0.12589963154184));
#955=CARTESIAN_POINT('',(-0.00109262465688199,0.0720245381040373,-0.127547719445997));
#956=CARTESIAN_POINT('',(0.00151362627007227,0.0703978332820057,-0.125979697239383));
#957=CARTESIAN_POINT('',(0.00157341895079214,0.0720337099623205,-0.12598553089837));
#958=CARTESIAN_POINT('',(0.00183031932351293,0.0720399664648684,-0.127641668424512));
#959=CARTESIAN_POINT('',(0.00489818647354693,0.070170841288316,-0.124702728761023));
#960=CARTESIAN_POINT('',(0.00504607102972869,0.0718695657061733,-0.124620319226324));
#961=CARTESIAN_POINT('',(0.00592302441492016,0.0718076795484843,-0.126132720765321));
#962=CARTESIAN_POINT('',(0.00753167105361366,0.069827254489098,-0.122236955583717));
#963=CARTESIAN_POINT('',(0.00763991896670304,0.071637445689471,-0.122077577155101));
#964=CARTESIAN_POINT('',(0.00910750780449512,0.0714560780809465,-0.123219005409741));
#965=CARTESIAN_POINT('',(0.00902726547441439,0.0695659659463909,-0.118948041564038));
#966=CARTESIAN_POINT('',(0.00903254231284211,0.0714768687034206,-0.118850320650575));
#967=CARTESIAN_POINT('',(0.0109160225103075,0.0711886945980079,-0.119332614167221));
#968=CARTESIAN_POINT('',(0.00915036653882414,0.0695423052936448,-0.115327171515661));
#969=CARTESIAN_POINT('',(0.00914353088462969,0.0714631042938778,-0.115399079331131));
#970=CARTESIAN_POINT('',(0.0110648797687928,0.0711644820256758,-0.115053962441418));
#971=CARTESIAN_POINT('',(0.00787426951039008,0.0697717168785418,-0.111935603868389));
#972=CARTESIAN_POINT('',(0.00796557734861466,0.0716020358465897,-0.112096608927851));
#973=CARTESIAN_POINT('',(0.00952178746390778,0.0713992449737969,-0.111046269104376));
#974=CARTESIAN_POINT('',(0.0054058988213449,0.0701161170662696,-0.10929882663465));
#975=CARTESIAN_POINT('',(0.00555640682789698,0.0718311836076909,-0.109399104527614));
#976=CARTESIAN_POINT('',(0.00653696442067624,0.0717516788033301,-0.107930484414243));
#977=CARTESIAN_POINT('',(0.00211178463572895,0.0703752001615146,-0.107801839939886));
#978=CARTESIAN_POINT('',(0.00219333114644561,0.0720170014796121,-0.107805688893783));
#979=CARTESIAN_POINT('',(0.00255362918991083,0.072016805393495,-0.106161549152972));
#980=CARTESIAN_POINT('',(-0.00151320428731817,0.0703978770236233,-0.107682303292421));
#981=CARTESIAN_POINT('',(-0.00157298651691664,0.0720337423955568,-0.107676443542526));
#982=CARTESIAN_POINT('',(-0.00182980905013549,0.0720400112268237,-0.106020297001931));
#983=CARTESIAN_POINT('',(-0.00490126776363783,0.0701706323749203,-0.108960447256248));
#984=CARTESIAN_POINT('',(-0.00504933557551457,0.0718694036440819,-0.109043023858947));
#985=CARTESIAN_POINT('',(-0.00592675039728861,0.0718074657618759,-0.107530633689961));
#986=CARTESIAN_POINT('',(-0.00753760486157985,0.0698263512779206,-0.111432602077518));
#987=CARTESIAN_POINT('',(-0.00764569190644006,0.0716368512450388,-0.111592173280539));
#988=CARTESIAN_POINT('',(-0.0091146831314548,0.0714551538010376,-0.110451890004371));
#989=CARTESIAN_POINT('',(-0.00902970320936719,0.0695654920540997,-0.11472452084433));
#990=CARTESIAN_POINT('',(-0.00903472593309062,0.0714765930701141,-0.114821779208716));
#991=CARTESIAN_POINT('',(-0.0109189702877596,0.0711882096514808,-0.114341831848358));
#992=CARTESIAN_POINT('',(-0.0091481991312902,0.0695427179031133,-0.118344015328737));
#993=CARTESIAN_POINT('',(-0.00914155037335392,0.0714633498259015,-0.118271803547278));
#994=CARTESIAN_POINT('',(-0.0110622588788348,0.071164904259868,-0.11861885811976));
#995=CARTESIAN_POINT('',(-0.00787269732482885,0.0697719366750602,-0.121727597022906));
#996=CARTESIAN_POINT('',(-0.00796398310078697,0.0716021883578685,-0.121566771863169));
#997=CARTESIAN_POINT('',(-0.00951988633304756,0.071399469897393,-0.122617114743645));
#998=CARTESIAN_POINT('',(-0.00540661989186159,0.0701160130258338,-0.124362789412647));
#999=CARTESIAN_POINT('',(-0.00555709926696843,0.071831114606277,-0.124262481602567));
#1000=CARTESIAN_POINT('',(-0.00653783635936177,0.0717515723359978,-0.125731026680705));
#1001=CARTESIAN_POINT('',(-0.00321032077101838,0.0702888165214457,-0.125361222300763));
#1002=CARTESIAN_POINT('',(-0.00329646769692847,0.0719560634349063,-0.125333940674379));
#1003=CARTESIAN_POINT('',(-0.00388200988450689,0.0719284067277471,-0.126910838864728));
#1004=CARTESIAN_POINT('',(-0.00205694641069607,0.070335786564141,-0.125630706938553));
#1005=CARTESIAN_POINT('',(-0.00211113264246263,0.0719894723656169,-0.125618040675582));
#1006=CARTESIAN_POINT('',(-0.00248731727069444,0.0719764724158922,-0.127229279155362));
#1007=CARTESIAN_POINT('',(0.,0.,-0.086));
#1008=MECHANICAL_DESIGN_GEOMETRIC_PRESENTATION_REPRESENTATION('',(#504),
#1009);
#1009=(
GEOMETRIC_REPRESENTATION_CONTEXT(3)
GLOBAL_UNCERTAINTY_ASSIGNED_CONTEXT((#1010))
GLOBAL_UNIT_ASSIGNED_CONTEXT((#1013,#1012,#1011))
REPRESENTATION_CONTEXT('Part 4','TOP_LEVEL_ASSEMBLY_PART')
);
#1010=UNCERTAINTY_MEASURE_WITH_UNIT(LENGTH_MEASURE(2.E-5),#1013,
'DISTANCE_ACCURACY_VALUE','Maximum Tolerance applied to model');
#1011=(
NAMED_UNIT(*)
SI_UNIT($,.STERADIAN.)
SOLID_ANGLE_UNIT()
);
#1012=(
NAMED_UNIT(*)
PLANE_ANGLE_UNIT()
SI_UNIT($,.RADIAN.)
);
#1013=(
LENGTH_UNIT()
NAMED_UNIT(*)
SI_UNIT($,.METRE.)
);
#1014=PRODUCT_DEFINITION_SHAPE('','',#1015);
#1015=PRODUCT_DEFINITION('','',#1017,#1016);
#1016=PRODUCT_DEFINITION_CONTEXT('',#1023,'design');
#1017=PRODUCT_DEFINITION_FORMATION_WITH_SPECIFIED_SOURCE('','',#1019,
 .NOT_KNOWN.);
#1018=PRODUCT_RELATED_PRODUCT_CATEGORY('','',(#1019));
#1019=PRODUCT('Part 4','Part 4','Part 4',(#1021));
#1020=PRODUCT_CATEGORY('','');
#1021=PRODUCT_CONTEXT('',#1023,'mechanical');
#1022=APPLICATION_PROTOCOL_DEFINITION('international standard',
'ap242_managed_model_based_3d_engineering',2020,#1023);
#1023=APPLICATION_CONTEXT('managed model based 3d engineering');
ENDSEC;
END-ISO-10303-21;
