ISO-10303-21;
HEADER;
/* Generated by software containing ST-Developer
 * from STEP Tools, Inc. (www.steptools.com) 
 */
/* OPTION: using custom renumber hook */

FILE_DESCRIPTION(
/* description */ ('STEP AP242 Edition 2',
'CAx-IF Rec.Pracs.---Representation and Presentation of Product Manufa
cturing Information (PMI)---4.0---2014-10-13',
'CAx-IF Rec.Pracs.---3D Tessellated Geometry---0.4---2014-09-14','2;1',
'CAx-IF Rec.Pracs.---User Defined Attributes---1.5---2016-08-15'),
/* implementation_level */ '2;1');

FILE_NAME(
/* name */ 'Part Studio 1 - Part 3',
/* time_stamp */ '2026-09-24T13:19:48Z',
/* author */ (''),
/* organization */ (''),
/* preprocessor_version */ 'ST-DEVELOPER v20',
/* originating_system */ 'ONSHAPE BY PTC INC, 1.221',
/* authorisation */ '  ');

FILE_SCHEMA (('AP242_MANAGED_MODEL_BASED_3D_ENGINEERING_MIM_LF { 1 0 10303 442 3 1 4 }'));
ENDSEC;

DATA;
#10=SHAPE_REPRESENTATION_RELATIONSHIP('','',#571,#11);
#11=ADVANCED_BREP_SHAPE_REPRESENTATION('',(#569),#965);
#12=CIRCLE('',#576,0.0253882833802399);
#13=CIRCLE('',#577,0.0253882833802399);
#14=CIRCLE('',#579,0.0685268013578746);
#15=CIRCLE('',#580,0.0685268013578746);
#16=CIRCLE('',#583,0.0685268013578746);
#17=CIRCLE('',#584,0.0685268013578746);
#18=CIRCLE('',#587,0.0207973609137877);
#19=CIRCLE('',#588,0.0207973609137877);
#20=CIRCLE('',#590,0.0157079986004527);
#21=CIRCLE('',#591,0.0157079986004527);
#22=CIRCLE('',#593,0.0661397980034347);
#23=CIRCLE('',#594,0.0675806567870003);
#24=CIRCLE('',#595,0.0685175995197879);
#25=CIRCLE('',#596,0.0656202996469728);
#26=CIRCLE('',#597,0.0685175995197879);
#27=CIRCLE('',#598,0.072092669913015);
#28=CIRCLE('',#599,0.001);
#29=CIRCLE('',#600,0.001);
#30=CIRCLE('',#601,0.001);
#31=CIRCLE('',#602,0.001);
#32=CIRCLE('',#604,0.001);
#33=CIRCLE('',#605,0.001);
#34=CIRCLE('',#606,0.001);
#35=CIRCLE('',#607,0.001);
#36=CIRCLE('',#608,0.0685175995197879);
#37=CIRCLE('',#609,0.0685175995197879);
#38=CIRCLE('',#610,0.0656202996469728);
#39=CIRCLE('',#611,0.072092669913015);
#40=CIRCLE('',#625,0.0661397980034347);
#41=CIRCLE('',#628,0.0675806567870003);
#42=CIRCLE('',#632,0.0199388576610277);
#43=CIRCLE('',#634,0.0199388576610277);
#44=CYLINDRICAL_SURFACE('',#575,0.0253882833802399);
#45=CYLINDRICAL_SURFACE('',#578,0.0685268013578746);
#46=CYLINDRICAL_SURFACE('',#582,0.0685268013578746);
#47=CYLINDRICAL_SURFACE('',#586,0.0207973609137877);
#48=CYLINDRICAL_SURFACE('',#589,0.0157079986004527);
#49=CYLINDRICAL_SURFACE('',#612,0.072092669913015);
#50=CYLINDRICAL_SURFACE('',#613,0.0656202996469728);
#51=CYLINDRICAL_SURFACE('',#614,0.0685175995197879);
#52=CYLINDRICAL_SURFACE('',#615,0.0685175995197879);
#53=CYLINDRICAL_SURFACE('',#620,0.001);
#54=CYLINDRICAL_SURFACE('',#621,0.001);
#55=CYLINDRICAL_SURFACE('',#622,0.001);
#56=CYLINDRICAL_SURFACE('',#623,0.001);
#57=CYLINDRICAL_SURFACE('',#624,0.0661397980034347);
#58=CYLINDRICAL_SURFACE('',#627,0.0675806567870003);
#59=CYLINDRICAL_SURFACE('',#633,0.0199388576610277);
#60=ORIENTED_EDGE('',*,*,#208,.F.);
#61=ORIENTED_EDGE('',*,*,#209,.T.);
#62=ORIENTED_EDGE('',*,*,#210,.T.);
#63=ORIENTED_EDGE('',*,*,#211,.F.);
#64=ORIENTED_EDGE('',*,*,#212,.F.);
#65=ORIENTED_EDGE('',*,*,#213,.T.);
#66=ORIENTED_EDGE('',*,*,#214,.T.);
#67=ORIENTED_EDGE('',*,*,#215,.F.);
#68=ORIENTED_EDGE('',*,*,#210,.F.);
#69=ORIENTED_EDGE('',*,*,#216,.T.);
#70=ORIENTED_EDGE('',*,*,#212,.T.);
#71=ORIENTED_EDGE('',*,*,#217,.F.);
#72=ORIENTED_EDGE('',*,*,#218,.F.);
#73=ORIENTED_EDGE('',*,*,#219,.T.);
#74=ORIENTED_EDGE('',*,*,#220,.T.);
#75=ORIENTED_EDGE('',*,*,#221,.F.);
#76=ORIENTED_EDGE('',*,*,#222,.F.);
#77=ORIENTED_EDGE('',*,*,#218,.T.);
#78=ORIENTED_EDGE('',*,*,#223,.T.);
#79=ORIENTED_EDGE('',*,*,#224,.F.);
#80=ORIENTED_EDGE('',*,*,#225,.F.);
#81=ORIENTED_EDGE('',*,*,#226,.T.);
#82=ORIENTED_EDGE('',*,*,#227,.T.);
#83=ORIENTED_EDGE('',*,*,#228,.F.);
#84=ORIENTED_EDGE('',*,*,#227,.F.);
#85=ORIENTED_EDGE('',*,*,#229,.F.);
#86=ORIENTED_EDGE('',*,*,#230,.T.);
#87=ORIENTED_EDGE('',*,*,#231,.T.);
#88=ORIENTED_EDGE('',*,*,#232,.T.);
#89=ORIENTED_EDGE('',*,*,#233,.F.);
#90=ORIENTED_EDGE('',*,*,#234,.T.);
#91=ORIENTED_EDGE('',*,*,#235,.T.);
#92=ORIENTED_EDGE('',*,*,#236,.F.);
#93=ORIENTED_EDGE('',*,*,#237,.T.);
#94=ORIENTED_EDGE('',*,*,#238,.T.);
#95=ORIENTED_EDGE('',*,*,#239,.F.);
#96=ORIENTED_EDGE('',*,*,#228,.T.);
#97=ORIENTED_EDGE('',*,*,#231,.F.);
#98=ORIENTED_EDGE('',*,*,#240,.T.);
#99=ORIENTED_EDGE('',*,*,#211,.T.);
#100=ORIENTED_EDGE('',*,*,#217,.T.);
#101=ORIENTED_EDGE('',*,*,#215,.T.);
#102=ORIENTED_EDGE('',*,*,#241,.F.);
#103=ORIENTED_EDGE('',*,*,#221,.T.);
#104=ORIENTED_EDGE('',*,*,#242,.T.);
#105=ORIENTED_EDGE('',*,*,#223,.F.);
#106=ORIENTED_EDGE('',*,*,#232,.F.);
#107=ORIENTED_EDGE('',*,*,#243,.F.);
#108=ORIENTED_EDGE('',*,*,#244,.T.);
#109=ORIENTED_EDGE('',*,*,#245,.T.);
#110=ORIENTED_EDGE('',*,*,#246,.T.);
#111=ORIENTED_EDGE('',*,*,#247,.T.);
#112=ORIENTED_EDGE('',*,*,#248,.F.);
#113=ORIENTED_EDGE('',*,*,#249,.T.);
#114=ORIENTED_EDGE('',*,*,#250,.F.);
#115=ORIENTED_EDGE('',*,*,#251,.T.);
#116=ORIENTED_EDGE('',*,*,#234,.F.);
#117=ORIENTED_EDGE('',*,*,#252,.F.);
#118=ORIENTED_EDGE('',*,*,#253,.T.);
#119=ORIENTED_EDGE('',*,*,#254,.T.);
#120=ORIENTED_EDGE('',*,*,#255,.T.);
#121=ORIENTED_EDGE('',*,*,#256,.T.);
#122=ORIENTED_EDGE('',*,*,#257,.T.);
#123=ORIENTED_EDGE('',*,*,#258,.F.);
#124=ORIENTED_EDGE('',*,*,#259,.T.);
#125=ORIENTED_EDGE('',*,*,#226,.F.);
#126=ORIENTED_EDGE('',*,*,#260,.F.);
#127=ORIENTED_EDGE('',*,*,#229,.T.);
#128=ORIENTED_EDGE('',*,*,#219,.F.);
#129=ORIENTED_EDGE('',*,*,#222,.T.);
#130=ORIENTED_EDGE('',*,*,#261,.F.);
#131=ORIENTED_EDGE('',*,*,#262,.T.);
#132=ORIENTED_EDGE('',*,*,#213,.F.);
#133=ORIENTED_EDGE('',*,*,#216,.F.);
#134=ORIENTED_EDGE('',*,*,#209,.F.);
#135=ORIENTED_EDGE('',*,*,#263,.T.);
#136=ORIENTED_EDGE('',*,*,#263,.F.);
#137=ORIENTED_EDGE('',*,*,#243,.T.);
#138=ORIENTED_EDGE('',*,*,#241,.T.);
#139=ORIENTED_EDGE('',*,*,#214,.F.);
#140=ORIENTED_EDGE('',*,*,#262,.F.);
#141=ORIENTED_EDGE('',*,*,#208,.T.);
#142=ORIENTED_EDGE('',*,*,#240,.F.);
#143=ORIENTED_EDGE('',*,*,#230,.F.);
#144=ORIENTED_EDGE('',*,*,#260,.T.);
#145=ORIENTED_EDGE('',*,*,#225,.T.);
#146=ORIENTED_EDGE('',*,*,#242,.F.);
#147=ORIENTED_EDGE('',*,*,#220,.F.);
#148=ORIENTED_EDGE('',*,*,#261,.T.);
#149=ORIENTED_EDGE('',*,*,#224,.T.);
#150=ORIENTED_EDGE('',*,*,#246,.F.);
#151=ORIENTED_EDGE('',*,*,#264,.T.);
#152=ORIENTED_EDGE('',*,*,#254,.F.);
#153=ORIENTED_EDGE('',*,*,#265,.T.);
#154=ORIENTED_EDGE('',*,*,#256,.F.);
#155=ORIENTED_EDGE('',*,*,#266,.T.);
#156=ORIENTED_EDGE('',*,*,#244,.F.);
#157=ORIENTED_EDGE('',*,*,#267,.T.);
#158=ORIENTED_EDGE('',*,*,#258,.T.);
#159=ORIENTED_EDGE('',*,*,#268,.T.);
#160=ORIENTED_EDGE('',*,*,#250,.T.);
#161=ORIENTED_EDGE('',*,*,#269,.T.);
#162=ORIENTED_EDGE('',*,*,#248,.T.);
#163=ORIENTED_EDGE('',*,*,#270,.T.);
#164=ORIENTED_EDGE('',*,*,#252,.T.);
#165=ORIENTED_EDGE('',*,*,#271,.T.);
#166=ORIENTED_EDGE('',*,*,#255,.F.);
#167=ORIENTED_EDGE('',*,*,#264,.F.);
#168=ORIENTED_EDGE('',*,*,#245,.F.);
#169=ORIENTED_EDGE('',*,*,#266,.F.);
#170=ORIENTED_EDGE('',*,*,#257,.F.);
#171=ORIENTED_EDGE('',*,*,#267,.F.);
#172=ORIENTED_EDGE('',*,*,#251,.F.);
#173=ORIENTED_EDGE('',*,*,#268,.F.);
#174=ORIENTED_EDGE('',*,*,#253,.F.);
#175=ORIENTED_EDGE('',*,*,#270,.F.);
#176=ORIENTED_EDGE('',*,*,#247,.F.);
#177=ORIENTED_EDGE('',*,*,#265,.F.);
#178=ORIENTED_EDGE('',*,*,#259,.F.);
#179=ORIENTED_EDGE('',*,*,#269,.F.);
#180=ORIENTED_EDGE('',*,*,#249,.F.);
#181=ORIENTED_EDGE('',*,*,#271,.F.);
#182=ORIENTED_EDGE('',*,*,#237,.F.);
#183=ORIENTED_EDGE('',*,*,#272,.F.);
#184=ORIENTED_EDGE('',*,*,#273,.T.);
#185=ORIENTED_EDGE('',*,*,#274,.T.);
#186=ORIENTED_EDGE('',*,*,#236,.T.);
#187=ORIENTED_EDGE('',*,*,#275,.F.);
#188=ORIENTED_EDGE('',*,*,#276,.F.);
#189=ORIENTED_EDGE('',*,*,#272,.T.);
#190=ORIENTED_EDGE('',*,*,#239,.T.);
#191=ORIENTED_EDGE('',*,*,#277,.F.);
#192=ORIENTED_EDGE('',*,*,#278,.F.);
#193=ORIENTED_EDGE('',*,*,#275,.T.);
#194=ORIENTED_EDGE('',*,*,#238,.F.);
#195=ORIENTED_EDGE('',*,*,#274,.F.);
#196=ORIENTED_EDGE('',*,*,#279,.T.);
#197=ORIENTED_EDGE('',*,*,#277,.T.);
#198=ORIENTED_EDGE('',*,*,#273,.F.);
#199=ORIENTED_EDGE('',*,*,#276,.T.);
#200=ORIENTED_EDGE('',*,*,#278,.T.);
#201=ORIENTED_EDGE('',*,*,#279,.F.);
#202=ORIENTED_EDGE('',*,*,#235,.F.);
#203=ORIENTED_EDGE('',*,*,#280,.F.);
#204=ORIENTED_EDGE('',*,*,#280,.T.);
#205=ORIENTED_EDGE('',*,*,#281,.T.);
#206=ORIENTED_EDGE('',*,*,#281,.F.);
#207=ORIENTED_EDGE('',*,*,#233,.T.);
#208=EDGE_CURVE('',#282,#283,#334,.T.);
#209=EDGE_CURVE('',#282,#284,#335,.T.);
#210=EDGE_CURVE('',#284,#285,#336,.T.);
#211=EDGE_CURVE('',#283,#285,#337,.T.);
#212=EDGE_CURVE('',#286,#287,#338,.T.);
#213=EDGE_CURVE('',#286,#288,#339,.T.);
#214=EDGE_CURVE('',#288,#289,#340,.T.);
#215=EDGE_CURVE('',#287,#289,#341,.T.);
#216=EDGE_CURVE('',#284,#286,#12,.F.);
#217=EDGE_CURVE('',#285,#287,#13,.T.);
#218=EDGE_CURVE('',#290,#291,#342,.T.);
#219=EDGE_CURVE('',#290,#292,#14,.T.);
#220=EDGE_CURVE('',#292,#293,#343,.T.);
#221=EDGE_CURVE('',#291,#293,#15,.F.);
#222=EDGE_CURVE('',#290,#294,#344,.T.);
#223=EDGE_CURVE('',#291,#295,#345,.T.);
#224=EDGE_CURVE('',#294,#295,#346,.T.);
#225=EDGE_CURVE('',#296,#297,#347,.T.);
#226=EDGE_CURVE('',#296,#298,#16,.T.);
#227=EDGE_CURVE('',#298,#299,#348,.T.);
#228=EDGE_CURVE('',#297,#299,#17,.F.);
#229=EDGE_CURVE('',#300,#298,#349,.T.);
#230=EDGE_CURVE('',#300,#301,#350,.T.);
#231=EDGE_CURVE('',#301,#299,#351,.T.);
#232=EDGE_CURVE('',#302,#302,#18,.F.);
#233=EDGE_CURVE('',#303,#303,#19,.T.);
#234=EDGE_CURVE('',#304,#304,#20,.T.);
#235=EDGE_CURVE('',#305,#305,#21,.T.);
#236=EDGE_CURVE('',#306,#307,#352,.T.);
#237=EDGE_CURVE('',#306,#308,#22,.T.);
#238=EDGE_CURVE('',#308,#309,#353,.T.);
#239=EDGE_CURVE('',#307,#309,#23,.T.);
#240=EDGE_CURVE('',#301,#297,#24,.T.);
#241=EDGE_CURVE('',#283,#289,#25,.T.);
#242=EDGE_CURVE('',#293,#295,#26,.T.);
#243=EDGE_CURVE('',#310,#310,#27,.T.);
#244=EDGE_CURVE('',#311,#312,#354,.T.);
#245=EDGE_CURVE('',#312,#313,#28,.T.);
#246=EDGE_CURVE('',#313,#314,#355,.T.);
#247=EDGE_CURVE('',#314,#315,#29,.T.);
#248=EDGE_CURVE('',#316,#315,#356,.T.);
#249=EDGE_CURVE('',#316,#317,#30,.T.);
#250=EDGE_CURVE('',#318,#317,#357,.T.);
#251=EDGE_CURVE('',#318,#311,#31,.T.);
#252=EDGE_CURVE('',#319,#320,#358,.T.);
#253=EDGE_CURVE('',#319,#321,#32,.F.);
#254=EDGE_CURVE('',#321,#322,#359,.T.);
#255=EDGE_CURVE('',#322,#323,#33,.F.);
#256=EDGE_CURVE('',#323,#324,#360,.T.);
#257=EDGE_CURVE('',#324,#325,#34,.F.);
#258=EDGE_CURVE('',#326,#325,#361,.T.);
#259=EDGE_CURVE('',#326,#320,#35,.F.);
#260=EDGE_CURVE('',#300,#296,#36,.T.);
#261=EDGE_CURVE('',#292,#294,#37,.T.);
#262=EDGE_CURVE('',#282,#288,#38,.T.);
#263=EDGE_CURVE('',#327,#327,#39,.T.);
#264=EDGE_CURVE('',#313,#322,#362,.F.);
#265=EDGE_CURVE('',#321,#314,#363,.T.);
#266=EDGE_CURVE('',#323,#312,#364,.T.);
#267=EDGE_CURVE('',#311,#324,#365,.F.);
#268=EDGE_CURVE('',#325,#318,#366,.T.);
#269=EDGE_CURVE('',#317,#326,#367,.F.);
#270=EDGE_CURVE('',#315,#319,#368,.F.);
#271=EDGE_CURVE('',#320,#316,#369,.T.);
#272=EDGE_CURVE('',#328,#306,#370,.T.);
#273=EDGE_CURVE('',#328,#329,#40,.T.);
#274=EDGE_CURVE('',#329,#308,#371,.T.);
#275=EDGE_CURVE('',#330,#307,#372,.T.);
#276=EDGE_CURVE('',#328,#330,#373,.T.);
#277=EDGE_CURVE('',#331,#309,#374,.T.);
#278=EDGE_CURVE('',#330,#331,#41,.T.);
#279=EDGE_CURVE('',#329,#331,#375,.T.);
#280=EDGE_CURVE('',#332,#332,#42,.F.);
#281=EDGE_CURVE('',#333,#333,#43,.T.);
#282=VERTEX_POINT('',#809);
#283=VERTEX_POINT('',#810);
#284=VERTEX_POINT('',#812);
#285=VERTEX_POINT('',#814);
#286=VERTEX_POINT('',#818);
#287=VERTEX_POINT('',#819);
#288=VERTEX_POINT('',#821);
#289=VERTEX_POINT('',#823);
#290=VERTEX_POINT('',#830);
#291=VERTEX_POINT('',#831);
#292=VERTEX_POINT('',#833);
#293=VERTEX_POINT('',#835);
#294=VERTEX_POINT('',#839);
#295=VERTEX_POINT('',#841);
#296=VERTEX_POINT('',#845);
#297=VERTEX_POINT('',#846);
#298=VERTEX_POINT('',#848);
#299=VERTEX_POINT('',#850);
#300=VERTEX_POINT('',#854);
#301=VERTEX_POINT('',#856);
#302=VERTEX_POINT('',#860);
#303=VERTEX_POINT('',#862);
#304=VERTEX_POINT('',#865);
#305=VERTEX_POINT('',#867);
#306=VERTEX_POINT('',#870);
#307=VERTEX_POINT('',#871);
#308=VERTEX_POINT('',#873);
#309=VERTEX_POINT('',#875);
#310=VERTEX_POINT('',#881);
#311=VERTEX_POINT('',#883);
#312=VERTEX_POINT('',#884);
#313=VERTEX_POINT('',#886);
#314=VERTEX_POINT('',#888);
#315=VERTEX_POINT('',#890);
#316=VERTEX_POINT('',#892);
#317=VERTEX_POINT('',#894);
#318=VERTEX_POINT('',#896);
#319=VERTEX_POINT('',#900);
#320=VERTEX_POINT('',#901);
#321=VERTEX_POINT('',#903);
#322=VERTEX_POINT('',#905);
#323=VERTEX_POINT('',#907);
#324=VERTEX_POINT('',#909);
#325=VERTEX_POINT('',#911);
#326=VERTEX_POINT('',#913);
#327=VERTEX_POINT('',#919);
#328=VERTEX_POINT('',#942);
#329=VERTEX_POINT('',#944);
#330=VERTEX_POINT('',#948);
#331=VERTEX_POINT('',#952);
#332=VERTEX_POINT('',#959);
#333=VERTEX_POINT('',#962);
#334=LINE('',#808,#376);
#335=LINE('',#811,#377);
#336=LINE('',#813,#378);
#337=LINE('',#815,#379);
#338=LINE('',#817,#380);
#339=LINE('',#820,#381);
#340=LINE('',#822,#382);
#341=LINE('',#824,#383);
#342=LINE('',#829,#384);
#343=LINE('',#834,#385);
#344=LINE('',#838,#386);
#345=LINE('',#840,#387);
#346=LINE('',#842,#388);
#347=LINE('',#844,#389);
#348=LINE('',#849,#390);
#349=LINE('',#853,#391);
#350=LINE('',#855,#392);
#351=LINE('',#857,#393);
#352=LINE('',#869,#394);
#353=LINE('',#874,#395);
#354=LINE('',#882,#396);
#355=LINE('',#887,#397);
#356=LINE('',#891,#398);
#357=LINE('',#895,#399);
#358=LINE('',#899,#400);
#359=LINE('',#904,#401);
#360=LINE('',#908,#402);
#361=LINE('',#912,#403);
#362=LINE('',#925,#404);
#363=LINE('',#926,#405);
#364=LINE('',#928,#406);
#365=LINE('',#929,#407);
#366=LINE('',#931,#408);
#367=LINE('',#932,#409);
#368=LINE('',#934,#410);
#369=LINE('',#935,#411);
#370=LINE('',#941,#412);
#371=LINE('',#945,#413);
#372=LINE('',#947,#414);
#373=LINE('',#949,#415);
#374=LINE('',#951,#416);
#375=LINE('',#955,#417);
#376=VECTOR('',#640,1.);
#377=VECTOR('',#641,1.);
#378=VECTOR('',#642,1.);
#379=VECTOR('',#643,1.);
#380=VECTOR('',#646,1.);
#381=VECTOR('',#647,1.);
#382=VECTOR('',#648,1.);
#383=VECTOR('',#649,1.);
#384=VECTOR('',#658,1.);
#385=VECTOR('',#661,1.);
#386=VECTOR('',#666,1.);
#387=VECTOR('',#667,1.);
#388=VECTOR('',#668,1.);
#389=VECTOR('',#671,1.);
#390=VECTOR('',#674,1.);
#391=VECTOR('',#679,1.);
#392=VECTOR('',#680,1.);
#393=VECTOR('',#681,1.);
#394=VECTOR('',#696,1.);
#395=VECTOR('',#699,1.);
#396=VECTOR('',#710,1.);
#397=VECTOR('',#713,1.);
#398=VECTOR('',#716,1.);
#399=VECTOR('',#719,1.);
#400=VECTOR('',#724,1.);
#401=VECTOR('',#727,1.);
#402=VECTOR('',#730,1.);
#403=VECTOR('',#733,1.);
#404=VECTOR('',#754,1.);
#405=VECTOR('',#755,1.);
#406=VECTOR('',#758,1.);
#407=VECTOR('',#759,1.);
#408=VECTOR('',#762,1.);
#409=VECTOR('',#763,1.);
#410=VECTOR('',#766,1.);
#411=VECTOR('',#767,1.);
#412=VECTOR('',#778,1.);
#413=VECTOR('',#781,1.);
#414=VECTOR('',#784,1.);
#415=VECTOR('',#785,1.);
#416=VECTOR('',#788,1.);
#417=VECTOR('',#793,1.);
#418=EDGE_LOOP('',(#60,#61,#62,#63));
#419=EDGE_LOOP('',(#64,#65,#66,#67));
#420=EDGE_LOOP('',(#68,#69,#70,#71));
#421=EDGE_LOOP('',(#72,#73,#74,#75));
#422=EDGE_LOOP('',(#76,#77,#78,#79));
#423=EDGE_LOOP('',(#80,#81,#82,#83));
#424=EDGE_LOOP('',(#84,#85,#86,#87));
#425=EDGE_LOOP('',(#88));
#426=EDGE_LOOP('',(#89));
#427=EDGE_LOOP('',(#90));
#428=EDGE_LOOP('',(#91));
#429=EDGE_LOOP('',(#92,#93,#94,#95));
#430=EDGE_LOOP('',(#96,#97,#98));
#431=EDGE_LOOP('',(#99,#100,#101,#102));
#432=EDGE_LOOP('',(#103,#104,#105));
#433=EDGE_LOOP('',(#106));
#434=EDGE_LOOP('',(#107));
#435=EDGE_LOOP('',(#108,#109,#110,#111,#112,#113,#114,#115));
#436=EDGE_LOOP('',(#116));
#437=EDGE_LOOP('',(#117,#118,#119,#120,#121,#122,#123,#124));
#438=EDGE_LOOP('',(#125,#126,#127));
#439=EDGE_LOOP('',(#128,#129,#130));
#440=EDGE_LOOP('',(#131,#132,#133,#134));
#441=EDGE_LOOP('',(#135));
#442=EDGE_LOOP('',(#136));
#443=EDGE_LOOP('',(#137));
#444=EDGE_LOOP('',(#138,#139,#140,#141));
#445=EDGE_LOOP('',(#142,#143,#144,#145));
#446=EDGE_LOOP('',(#146,#147,#148,#149));
#447=EDGE_LOOP('',(#150,#151,#152,#153));
#448=EDGE_LOOP('',(#154,#155,#156,#157));
#449=EDGE_LOOP('',(#158,#159,#160,#161));
#450=EDGE_LOOP('',(#162,#163,#164,#165));
#451=EDGE_LOOP('',(#166,#167,#168,#169));
#452=EDGE_LOOP('',(#170,#171,#172,#173));
#453=EDGE_LOOP('',(#174,#175,#176,#177));
#454=EDGE_LOOP('',(#178,#179,#180,#181));
#455=EDGE_LOOP('',(#182,#183,#184,#185));
#456=EDGE_LOOP('',(#186,#187,#188,#189));
#457=EDGE_LOOP('',(#190,#191,#192,#193));
#458=EDGE_LOOP('',(#194,#195,#196,#197));
#459=EDGE_LOOP('',(#198,#199,#200,#201));
#460=EDGE_LOOP('',(#202));
#461=EDGE_LOOP('',(#203));
#462=EDGE_LOOP('',(#204));
#463=EDGE_LOOP('',(#205));
#464=EDGE_LOOP('',(#206));
#465=EDGE_LOOP('',(#207));
#466=FACE_BOUND('',#418,.T.);
#467=FACE_BOUND('',#419,.T.);
#468=FACE_BOUND('',#420,.T.);
#469=FACE_BOUND('',#421,.T.);
#470=FACE_BOUND('',#422,.T.);
#471=FACE_BOUND('',#423,.T.);
#472=FACE_BOUND('',#424,.T.);
#473=FACE_BOUND('',#425,.T.);
#474=FACE_BOUND('',#426,.T.);
#475=FACE_BOUND('',#427,.T.);
#476=FACE_BOUND('',#428,.T.);
#477=FACE_BOUND('',#429,.T.);
#478=FACE_BOUND('',#430,.T.);
#479=FACE_BOUND('',#431,.T.);
#480=FACE_BOUND('',#432,.T.);
#481=FACE_BOUND('',#433,.T.);
#482=FACE_BOUND('',#434,.T.);
#483=FACE_BOUND('',#435,.T.);
#484=FACE_BOUND('',#436,.T.);
#485=FACE_BOUND('',#437,.T.);
#486=FACE_BOUND('',#438,.T.);
#487=FACE_BOUND('',#439,.T.);
#488=FACE_BOUND('',#440,.T.);
#489=FACE_BOUND('',#441,.T.);
#490=FACE_BOUND('',#442,.T.);
#491=FACE_BOUND('',#443,.T.);
#492=FACE_BOUND('',#444,.T.);
#493=FACE_BOUND('',#445,.T.);
#494=FACE_BOUND('',#446,.T.);
#495=FACE_BOUND('',#447,.T.);
#496=FACE_BOUND('',#448,.T.);
#497=FACE_BOUND('',#449,.T.);
#498=FACE_BOUND('',#450,.T.);
#499=FACE_BOUND('',#451,.T.);
#500=FACE_BOUND('',#452,.T.);
#501=FACE_BOUND('',#453,.T.);
#502=FACE_BOUND('',#454,.T.);
#503=FACE_BOUND('',#455,.T.);
#504=FACE_BOUND('',#456,.T.);
#505=FACE_BOUND('',#457,.T.);
#506=FACE_BOUND('',#458,.T.);
#507=FACE_BOUND('',#459,.T.);
#508=FACE_BOUND('',#460,.T.);
#509=FACE_BOUND('',#461,.T.);
#510=FACE_BOUND('',#462,.T.);
#511=FACE_BOUND('',#463,.T.);
#512=FACE_BOUND('',#464,.T.);
#513=FACE_BOUND('',#465,.T.);
#514=PLANE('',#573);
#515=PLANE('',#574);
#516=PLANE('',#581);
#517=PLANE('',#585);
#518=PLANE('',#592);
#519=PLANE('',#603);
#520=PLANE('',#616);
#521=PLANE('',#617);
#522=PLANE('',#618);
#523=PLANE('',#619);
#524=PLANE('',#626);
#525=PLANE('',#629);
#526=PLANE('',#630);
#527=PLANE('',#631);
#528=PLANE('',#635);
#529=ADVANCED_FACE('',(#466),#514,.T.);
#530=ADVANCED_FACE('',(#467),#515,.T.);
#531=ADVANCED_FACE('',(#468),#44,.T.);
#532=ADVANCED_FACE('',(#469),#45,.F.);
#533=ADVANCED_FACE('',(#470),#516,.F.);
#534=ADVANCED_FACE('',(#471),#46,.F.);
#535=ADVANCED_FACE('',(#472),#517,.F.);
#536=ADVANCED_FACE('',(#473,#474),#47,.T.);
#537=ADVANCED_FACE('',(#475,#476),#48,.F.);
#538=ADVANCED_FACE('',(#477,#478,#479,#480,#481,#482,#483),#518,.F.);
#539=ADVANCED_FACE('',(#484,#485,#486,#487,#488,#489),#519,.T.);
#540=ADVANCED_FACE('',(#490,#491),#49,.T.);
#541=ADVANCED_FACE('',(#492),#50,.F.);
#542=ADVANCED_FACE('',(#493),#51,.T.);
#543=ADVANCED_FACE('',(#494),#52,.T.);
#544=ADVANCED_FACE('',(#495),#520,.T.);
#545=ADVANCED_FACE('',(#496),#521,.T.);
#546=ADVANCED_FACE('',(#497),#522,.F.);
#547=ADVANCED_FACE('',(#498),#523,.F.);
#548=ADVANCED_FACE('',(#499),#53,.F.);
#549=ADVANCED_FACE('',(#500),#54,.F.);
#550=ADVANCED_FACE('',(#501),#55,.F.);
#551=ADVANCED_FACE('',(#502),#56,.F.);
#552=ADVANCED_FACE('',(#503),#57,.F.);
#553=ADVANCED_FACE('',(#504),#524,.F.);
#554=ADVANCED_FACE('',(#505),#58,.T.);
#555=ADVANCED_FACE('',(#506),#525,.T.);
#556=ADVANCED_FACE('',(#507),#526,.T.);
#557=ADVANCED_FACE('',(#508,#509),#527,.T.);
#558=ADVANCED_FACE('',(#510,#511),#59,.F.);
#559=ADVANCED_FACE('',(#512,#513),#528,.T.);
#560=CLOSED_SHELL('',(#529,#530,#531,#532,#533,#534,#535,#536,#537,#538,
#539,#540,#541,#542,#543,#544,#545,#546,#547,#548,#549,#550,#551,#552,#553,
#554,#555,#556,#557,#558,#559));
#561=STYLED_ITEM('',(#562),#569);
#562=PRESENTATION_STYLE_ASSIGNMENT((#563));
#563=SURFACE_STYLE_USAGE(.BOTH.,#564);
#564=SURFACE_SIDE_STYLE('',(#565));
#565=SURFACE_STYLE_FILL_AREA(#566);
#566=FILL_AREA_STYLE('',(#567));
#567=FILL_AREA_STYLE_COLOUR('',#568);
#568=COLOUR_RGB('',0.498039215686275,0.498039215686275,0.498039215686275);
#569=MANIFOLD_SOLID_BREP('Part 3',#560);
#570=SHAPE_DEFINITION_REPRESENTATION(#970,#571);
#571=SHAPE_REPRESENTATION('Part 3',(#572),#965);
#572=AXIS2_PLACEMENT_3D('',#806,#636,#637);
#573=AXIS2_PLACEMENT_3D('',#807,#638,#639);
#574=AXIS2_PLACEMENT_3D('',#816,#644,#645);
#575=AXIS2_PLACEMENT_3D('',#825,#650,#651);
#576=AXIS2_PLACEMENT_3D('',#826,#652,#653);
#577=AXIS2_PLACEMENT_3D('',#827,#654,#655);
#578=AXIS2_PLACEMENT_3D('',#828,#656,#657);
#579=AXIS2_PLACEMENT_3D('',#832,#659,#660);
#580=AXIS2_PLACEMENT_3D('',#836,#662,#663);
#581=AXIS2_PLACEMENT_3D('',#837,#664,#665);
#582=AXIS2_PLACEMENT_3D('',#843,#669,#670);
#583=AXIS2_PLACEMENT_3D('',#847,#672,#673);
#584=AXIS2_PLACEMENT_3D('',#851,#675,#676);
#585=AXIS2_PLACEMENT_3D('',#852,#677,#678);
#586=AXIS2_PLACEMENT_3D('',#858,#682,#683);
#587=AXIS2_PLACEMENT_3D('',#859,#684,#685);
#588=AXIS2_PLACEMENT_3D('',#861,#686,#687);
#589=AXIS2_PLACEMENT_3D('',#863,#688,#689);
#590=AXIS2_PLACEMENT_3D('',#864,#690,#691);
#591=AXIS2_PLACEMENT_3D('',#866,#692,#693);
#592=AXIS2_PLACEMENT_3D('',#868,#694,#695);
#593=AXIS2_PLACEMENT_3D('',#872,#697,#698);
#594=AXIS2_PLACEMENT_3D('',#876,#700,#701);
#595=AXIS2_PLACEMENT_3D('',#877,#702,#703);
#596=AXIS2_PLACEMENT_3D('',#878,#704,#705);
#597=AXIS2_PLACEMENT_3D('',#879,#706,#707);
#598=AXIS2_PLACEMENT_3D('',#880,#708,#709);
#599=AXIS2_PLACEMENT_3D('',#885,#711,#712);
#600=AXIS2_PLACEMENT_3D('',#889,#714,#715);
#601=AXIS2_PLACEMENT_3D('',#893,#717,#718);
#602=AXIS2_PLACEMENT_3D('',#897,#720,#721);
#603=AXIS2_PLACEMENT_3D('',#898,#722,#723);
#604=AXIS2_PLACEMENT_3D('',#902,#725,#726);
#605=AXIS2_PLACEMENT_3D('',#906,#728,#729);
#606=AXIS2_PLACEMENT_3D('',#910,#731,#732);
#607=AXIS2_PLACEMENT_3D('',#914,#734,#735);
#608=AXIS2_PLACEMENT_3D('',#915,#736,#737);
#609=AXIS2_PLACEMENT_3D('',#916,#738,#739);
#610=AXIS2_PLACEMENT_3D('',#917,#740,#741);
#611=AXIS2_PLACEMENT_3D('',#918,#742,#743);
#612=AXIS2_PLACEMENT_3D('',#920,#744,#745);
#613=AXIS2_PLACEMENT_3D('',#921,#746,#747);
#614=AXIS2_PLACEMENT_3D('',#922,#748,#749);
#615=AXIS2_PLACEMENT_3D('',#923,#750,#751);
#616=AXIS2_PLACEMENT_3D('',#924,#752,#753);
#617=AXIS2_PLACEMENT_3D('',#927,#756,#757);
#618=AXIS2_PLACEMENT_3D('',#930,#760,#761);
#619=AXIS2_PLACEMENT_3D('',#933,#764,#765);
#620=AXIS2_PLACEMENT_3D('',#936,#768,#769);
#621=AXIS2_PLACEMENT_3D('',#937,#770,#771);
#622=AXIS2_PLACEMENT_3D('',#938,#772,#773);
#623=AXIS2_PLACEMENT_3D('',#939,#774,#775);
#624=AXIS2_PLACEMENT_3D('',#940,#776,#777);
#625=AXIS2_PLACEMENT_3D('',#943,#779,#780);
#626=AXIS2_PLACEMENT_3D('',#946,#782,#783);
#627=AXIS2_PLACEMENT_3D('',#950,#786,#787);
#628=AXIS2_PLACEMENT_3D('',#953,#789,#790);
#629=AXIS2_PLACEMENT_3D('',#954,#791,#792);
#630=AXIS2_PLACEMENT_3D('',#956,#794,#795);
#631=AXIS2_PLACEMENT_3D('',#957,#796,#797);
#632=AXIS2_PLACEMENT_3D('',#958,#798,#799);
#633=AXIS2_PLACEMENT_3D('',#960,#800,#801);
#634=AXIS2_PLACEMENT_3D('',#961,#802,#803);
#635=AXIS2_PLACEMENT_3D('',#963,#804,#805);
#636=DIRECTION('',(0.,0.,1.));
#637=DIRECTION('',(1.,0.,0.));
#638=DIRECTION('',(-1.86274366557099E-17,-1.,0.));
#639=DIRECTION('',(1.,-1.86274366557099E-17,0.));
#640=DIRECTION('',(0.,0.,1.));
#641=DIRECTION('',(1.,-1.86274366557099E-17,0.));
#642=DIRECTION('',(0.,0.,1.));
#643=DIRECTION('',(1.,-1.86274366557099E-17,0.));
#644=DIRECTION('',(-1.862743665571E-17,-1.,0.));
#645=DIRECTION('',(1.,-1.862743665571E-17,0.));
#646=DIRECTION('',(0.,0.,1.));
#647=DIRECTION('',(1.,-1.862743665571E-17,0.));
#648=DIRECTION('',(0.,0.,1.));
#649=DIRECTION('',(1.,-1.862743665571E-17,0.));
#650=DIRECTION('',(0.,0.,1.));
#651=DIRECTION('',(1.,0.,0.));
#652=DIRECTION('',(0.,0.,-1.));
#653=DIRECTION('',(-1.,0.,0.));
#654=DIRECTION('',(0.,0.,1.));
#655=DIRECTION('',(1.,0.,0.));
#656=DIRECTION('',(0.,0.,1.));
#657=DIRECTION('',(1.,0.,0.));
#658=DIRECTION('',(0.,0.,1.));
#659=DIRECTION('',(0.,0.,-1.));
#660=DIRECTION('',(-1.,0.,0.));
#661=DIRECTION('',(0.,0.,1.));
#662=DIRECTION('',(0.,0.,1.));
#663=DIRECTION('',(1.,0.,0.));
#664=DIRECTION('',(0.0134714536477503,-0.999909255851058,0.));
#665=DIRECTION('',(0.999909255851058,0.0134714536477503,0.));
#666=DIRECTION('',(0.999909255851058,0.0134714536477503,0.));
#667=DIRECTION('',(0.999909255851058,0.0134714536477503,0.));
#668=DIRECTION('',(0.,0.,1.));
#669=DIRECTION('',(0.,0.,1.));
#670=DIRECTION('',(1.,0.,0.));
#671=DIRECTION('',(0.,0.,1.));
#672=DIRECTION('',(0.,0.,-1.));
#673=DIRECTION('',(-1.,0.,0.));
#674=DIRECTION('',(0.,0.,1.));
#675=DIRECTION('',(0.,0.,1.));
#676=DIRECTION('',(1.,0.,0.));
#677=DIRECTION('',(0.0134714536477503,-0.999909255851058,0.));
#678=DIRECTION('',(0.999909255851058,0.0134714536477503,0.));
#679=DIRECTION('',(0.999909255851058,0.0134714536477503,0.));
#680=DIRECTION('',(0.,0.,1.));
#681=DIRECTION('',(0.999909255851058,0.0134714536477503,0.));
#682=DIRECTION('',(0.,0.,-1.));
#683=DIRECTION('',(-1.,0.,0.));
#684=DIRECTION('',(0.,0.,-1.));
#685=DIRECTION('',(-1.,0.,0.));
#686=DIRECTION('',(0.,0.,1.));
#687=DIRECTION('',(1.,-6.12323399573677E-17,0.));
#688=DIRECTION('',(0.,0.,1.));
#689=DIRECTION('',(1.,0.,0.));
#690=DIRECTION('',(0.,0.,-1.));
#691=DIRECTION('',(-1.,0.,0.));
#692=DIRECTION('',(0.,0.,1.));
#693=DIRECTION('',(1.,0.,0.));
#694=DIRECTION('',(0.,0.,-1.));
#695=DIRECTION('',(1.,0.,0.));
#696=DIRECTION('',(0.,1.,0.));
#697=DIRECTION('',(0.,0.,1.));
#698=DIRECTION('',(-0.210484007538188,0.977597300820058,0.));
#699=DIRECTION('',(0.,1.,0.));
#700=DIRECTION('',(0.,0.,1.));
#701=DIRECTION('',(-0.205996366466316,0.978552756371712,0.));
#702=DIRECTION('',(0.,0.,1.));
#703=DIRECTION('',(1.,0.,0.));
#704=DIRECTION('',(0.,0.,1.));
#705=DIRECTION('',(1.,0.,0.));
#706=DIRECTION('',(0.,0.,1.));
#707=DIRECTION('',(1.,0.,0.));
#708=DIRECTION('',(0.,0.,-1.));
#709=DIRECTION('',(-1.,0.,0.));
#710=DIRECTION('',(0.,-1.,0.));
#711=DIRECTION('',(0.,0.,-1.));
#712=DIRECTION('',(-1.,0.,0.));
#713=DIRECTION('',(-1.,0.,0.));
#714=DIRECTION('',(0.,0.,-1.));
#715=DIRECTION('',(-1.,0.,0.));
#716=DIRECTION('',(3.46944695195362E-16,-1.,0.));
#717=DIRECTION('',(0.,0.,-1.));
#718=DIRECTION('',(-1.,0.,0.));
#719=DIRECTION('',(-1.,0.,0.));
#720=DIRECTION('',(0.,0.,-1.));
#721=DIRECTION('',(-1.,0.,0.));
#722=DIRECTION('',(0.,0.,-1.));
#723=DIRECTION('',(1.,0.,0.));
#724=DIRECTION('',(-3.46944695195362E-16,1.,0.));
#725=DIRECTION('',(0.,0.,-1.));
#726=DIRECTION('',(-1.,0.,0.));
#727=DIRECTION('',(1.,0.,0.));
#728=DIRECTION('',(0.,0.,-1.));
#729=DIRECTION('',(-1.,0.,0.));
#730=DIRECTION('',(0.,1.,0.));
#731=DIRECTION('',(0.,0.,-1.));
#732=DIRECTION('',(-1.,0.,0.));
#733=DIRECTION('',(1.,0.,0.));
#734=DIRECTION('',(0.,0.,-1.));
#735=DIRECTION('',(-1.,0.,0.));
#736=DIRECTION('',(0.,0.,1.));
#737=DIRECTION('',(1.,0.,0.));
#738=DIRECTION('',(0.,0.,1.));
#739=DIRECTION('',(1.,0.,0.));
#740=DIRECTION('',(0.,0.,1.));
#741=DIRECTION('',(1.,0.,0.));
#742=DIRECTION('',(0.,0.,-1.));
#743=DIRECTION('',(-1.,0.,0.));
#744=DIRECTION('',(0.,0.,-1.));
#745=DIRECTION('',(-1.,0.,0.));
#746=DIRECTION('',(0.,0.,1.));
#747=DIRECTION('',(1.,0.,0.));
#748=DIRECTION('',(0.,0.,1.));
#749=DIRECTION('',(1.,0.,0.));
#750=DIRECTION('',(0.,0.,1.));
#751=DIRECTION('',(1.,0.,0.));
#752=DIRECTION('',(0.,1.,0.));
#753=DIRECTION('',(0.,0.,1.));
#754=DIRECTION('',(0.,0.,1.));
#755=DIRECTION('',(0.,0.,1.));
#756=DIRECTION('',(-1.,0.,0.));
#757=DIRECTION('',(0.,0.,1.));
#758=DIRECTION('',(0.,0.,1.));
#759=DIRECTION('',(0.,0.,1.));
#760=DIRECTION('',(0.,1.,0.));
#761=DIRECTION('',(0.,0.,1.));
#762=DIRECTION('',(0.,0.,1.));
#763=DIRECTION('',(0.,0.,1.));
#764=DIRECTION('',(-1.,-3.46944695195362E-16,0.));
#765=DIRECTION('',(3.46944695195362E-16,-1.,0.));
#766=DIRECTION('',(0.,0.,1.));
#767=DIRECTION('',(0.,0.,1.));
#768=DIRECTION('',(0.,0.,-1.));
#769=DIRECTION('',(-1.,0.,0.));
#770=DIRECTION('',(0.,0.,1.));
#771=DIRECTION('',(1.,0.,0.));
#772=DIRECTION('',(0.,0.,1.));
#773=DIRECTION('',(1.,0.,0.));
#774=DIRECTION('',(0.,0.,-1.));
#775=DIRECTION('',(-1.,0.,0.));
#776=DIRECTION('',(0.,0.,-1.));
#777=DIRECTION('',(-1.,0.,0.));
#778=DIRECTION('',(0.,0.,-1.));
#779=DIRECTION('',(0.,0.,1.));
#780=DIRECTION('',(-0.210484007538188,0.977597300820058,0.));
#781=DIRECTION('',(0.,0.,-1.));
#782=DIRECTION('',(-1.,0.,0.));
#783=DIRECTION('',(0.,0.,1.));
#784=DIRECTION('',(0.,0.,-1.));
#785=DIRECTION('',(0.,1.,0.));
#786=DIRECTION('',(0.,0.,-1.));
#787=DIRECTION('',(-1.,0.,0.));
#788=DIRECTION('',(0.,0.,-1.));
#789=DIRECTION('',(0.,0.,1.));
#790=DIRECTION('',(-0.205996366466316,0.978552756371712,0.));
#791=DIRECTION('',(-1.,0.,0.));
#792=DIRECTION('',(0.,0.,1.));
#793=DIRECTION('',(0.,1.,0.));
#794=DIRECTION('',(0.,0.,1.));
#795=DIRECTION('',(1.,0.,0.));
#796=DIRECTION('',(0.,0.,1.));
#797=DIRECTION('',(1.,0.,0.));
#798=DIRECTION('',(0.,0.,1.));
#799=DIRECTION('',(1.,0.,0.));
#800=DIRECTION('',(0.,0.,-1.));
#801=DIRECTION('',(-1.,0.,0.));
#802=DIRECTION('',(0.,0.,1.));
#803=DIRECTION('',(1.,-6.12323399573677E-17,0.));
#804=DIRECTION('',(0.,0.,1.));
#805=DIRECTION('',(1.,0.,0.));
#806=CARTESIAN_POINT('',(0.,0.,0.));
#807=CARTESIAN_POINT('',(-4.28431043081328E-20,-0.0023,-0.027));
#808=CARTESIAN_POINT('',(-0.0655799796108424,-0.0023,-0.027));
#809=CARTESIAN_POINT('',(-0.0655799796108424,-0.0023,-0.027));
#810=CARTESIAN_POINT('',(-0.0655799796108424,-0.0023,-0.025));
#811=CARTESIAN_POINT('',(-4.28431043081328E-20,-0.0023,-0.027));
#812=CARTESIAN_POINT('',(-0.0252838868253155,-0.0023,-0.027));
#813=CARTESIAN_POINT('',(-0.0252838868253155,-0.0023,-0.027));
#814=CARTESIAN_POINT('',(-0.0252838868253155,-0.0023,-0.025));
#815=CARTESIAN_POINT('',(-4.28431043081328E-20,-0.0023,-0.025));
#816=CARTESIAN_POINT('',(-4.28431043081328E-20,-0.0023,-0.027));
#817=CARTESIAN_POINT('',(0.0252838868253155,-0.0023,-0.027));
#818=CARTESIAN_POINT('',(0.0252838868253152,-0.0023,-0.027));
#819=CARTESIAN_POINT('',(0.0252838868253155,-0.0023,-0.025));
#820=CARTESIAN_POINT('',(-4.28431043081328E-20,-0.0023,-0.027));
#821=CARTESIAN_POINT('',(0.0655799796108422,-0.00230000000000587,-0.027));
#822=CARTESIAN_POINT('',(0.0655799796108424,-0.0023,-0.027));
#823=CARTESIAN_POINT('',(0.0655799796108424,-0.0023,-0.025));
#824=CARTESIAN_POINT('',(-4.28431043081328E-20,-0.0023,-0.025));
#825=CARTESIAN_POINT('',(0.,1.55458399887283E-18,-0.027));
#826=CARTESIAN_POINT('',(0.,1.55458399887283E-18,-0.027));
#827=CARTESIAN_POINT('',(0.,1.55458399887283E-18,-0.025));
#828=CARTESIAN_POINT('',(0.,1.12661312158781E-18,-0.027));
#829=CARTESIAN_POINT('',(-0.0048006515156238,-0.0683584394889698,-0.027));
#830=CARTESIAN_POINT('',(-0.0048006515156238,-0.0683584394889698,-0.027));
#831=CARTESIAN_POINT('',(-0.0048006515156238,-0.0683584394889698,-0.025));
#832=CARTESIAN_POINT('',(0.,1.12661312158781E-18,-0.027));
#833=CARTESIAN_POINT('',(-0.0684831558936263,-0.00230000965241524,-0.027));
#834=CARTESIAN_POINT('',(-0.0684835889317969,-0.00230000000000585,-0.027));
#835=CARTESIAN_POINT('',(-0.0684835889317969,-0.00230000000000585,-0.025));
#836=CARTESIAN_POINT('',(0.,1.12661312158781E-18,-0.025));
#837=CARTESIAN_POINT('',(0.000919932761309957,-0.0682813679092501,-0.027));
#838=CARTESIAN_POINT('',(0.000919932761309957,-0.0682813679092501,-0.027));
#839=CARTESIAN_POINT('',(-0.00468936781356169,-0.068356940199684,-0.027));
#840=CARTESIAN_POINT('',(0.000919932761309957,-0.0682813679092501,-0.025));
#841=CARTESIAN_POINT('',(-0.00468936781356169,-0.068356940199684,-0.025));
#842=CARTESIAN_POINT('',(-0.00468936781356169,-0.068356940199684,-0.027));
#843=CARTESIAN_POINT('',(0.,1.12661312158781E-18,-0.027));
#844=CARTESIAN_POINT('',(0.0684835889317969,-0.00230000000000585,-0.027));
#845=CARTESIAN_POINT('',(0.0684838379714753,-0.00230007962978931,-0.027));
#846=CARTESIAN_POINT('',(0.0684835889317969,-0.00230000000000585,-0.025));
#847=CARTESIAN_POINT('',(0.,1.12661312158781E-18,-0.027));
#848=CARTESIAN_POINT('',(0.00664051703824372,-0.0682042963295304,-0.027));
#849=CARTESIAN_POINT('',(0.00664051703824372,-0.0682042963295304,-0.027));
#850=CARTESIAN_POINT('',(0.00664051703824372,-0.0682042963295304,-0.025));
#851=CARTESIAN_POINT('',(0.,1.12661312158781E-18,-0.025));
#852=CARTESIAN_POINT('',(0.000919932761309957,-0.0682813679092501,-0.027));
#853=CARTESIAN_POINT('',(0.000919932761309957,-0.0682813679092501,-0.027));
#854=CARTESIAN_POINT('',(0.00652923333618161,-0.0682057956188163,-0.027));
#855=CARTESIAN_POINT('',(0.00652923333618161,-0.0682057956188163,-0.027));
#856=CARTESIAN_POINT('',(0.00652923333618161,-0.0682057956188163,-0.025));
#857=CARTESIAN_POINT('',(0.000919932761309957,-0.0682813679092501,-0.025));
#858=CARTESIAN_POINT('',(0.,1.27347107368912E-18,-0.013));
#859=CARTESIAN_POINT('',(0.,1.27347107368912E-18,-0.025));
#860=CARTESIAN_POINT('',(-0.0207973609137877,1.27347107368912E-18,-0.025));
#861=CARTESIAN_POINT('',(0.,1.27347107368912E-18,-0.006));
#862=CARTESIAN_POINT('',(0.0207973609137877,-7.70371977754894E-34,-0.006));
#863=CARTESIAN_POINT('',(0.,2.23530858404189E-18,-0.038));
#864=CARTESIAN_POINT('',(0.,2.23530858404189E-18,-0.027));
#865=CARTESIAN_POINT('',(-0.0157079986004527,2.23530858404189E-18,-0.027));
#866=CARTESIAN_POINT('',(0.,2.23530858404189E-18,-0.0074));
#867=CARTESIAN_POINT('',(0.0157079986004527,2.23530858404189E-18,-0.0074));
#868=CARTESIAN_POINT('',(0.,0.,-0.025));
#869=CARTESIAN_POINT('',(-0.0139213697415292,0.0653946629906357,-0.025));
#870=CARTESIAN_POINT('',(-0.0139213697415293,0.0646580880049416,-0.025));
#871=CARTESIAN_POINT('',(-0.0139213697415292,0.0661312379763299,-0.025));
#872=CARTESIAN_POINT('',(7.07900427003853E-17,-6.66133814775094E-16,-0.025));
#873=CARTESIAN_POINT('',(0.0139213697415292,0.0646580880049416,-0.025));
#874=CARTESIAN_POINT('',(0.0139213697415292,0.0653946629906357,-0.025));
#875=CARTESIAN_POINT('',(0.0139213697415292,0.0661312379763299,-0.025));
#876=CARTESIAN_POINT('',(-1.41396058772821E-17,1.11022302462516E-16,-0.025));
#877=CARTESIAN_POINT('',(0.,4.19549294685843E-18,-0.025));
#878=CARTESIAN_POINT('',(0.,4.01808449608777E-18,-0.025));
#879=CARTESIAN_POINT('',(0.,4.19549294685843E-18,-0.025));
#880=CARTESIAN_POINT('',(0.,-5.85067484210152E-18,-0.025));
#881=CARTESIAN_POINT('',(-0.072092669913015,-5.85067484210152E-18,-0.025));
#882=CARTESIAN_POINT('',(0.005,0.0637196624079498,-0.025));
#883=CARTESIAN_POINT('',(0.005,0.0652196624079498,-0.025));
#884=CARTESIAN_POINT('',(0.005,0.0622196624079498,-0.025));
#885=CARTESIAN_POINT('',(0.004,0.0622196624079498,-0.025));
#886=CARTESIAN_POINT('',(0.004,0.0612196624079498,-0.025));
#887=CARTESIAN_POINT('',(-0.0025,0.0612196624079498,-0.025));
#888=CARTESIAN_POINT('',(-0.004,0.0612196624079498,-0.025));
#889=CARTESIAN_POINT('',(-0.004,0.0622196624079498,-0.025));
#890=CARTESIAN_POINT('',(-0.005,0.0622196624079498,-0.025));
#891=CARTESIAN_POINT('',(-0.005,0.0637196624079498,-0.025));
#892=CARTESIAN_POINT('',(-0.005,0.0652196624079498,-0.025));
#893=CARTESIAN_POINT('',(-0.004,0.0652196624079498,-0.025));
#894=CARTESIAN_POINT('',(-0.004,0.0662196624079498,-0.025));
#895=CARTESIAN_POINT('',(-0.0025,0.0662196624079498,-0.025));
#896=CARTESIAN_POINT('',(0.004,0.0662196624079498,-0.025));
#897=CARTESIAN_POINT('',(0.004,0.0652196624079498,-0.025));
#898=CARTESIAN_POINT('',(0.,0.,-0.027));
#899=CARTESIAN_POINT('',(-0.005,-1.7347234759768E-18,-0.027));
#900=CARTESIAN_POINT('',(-0.005,0.0622196624079498,-0.027));
#901=CARTESIAN_POINT('',(-0.005,0.0652196624079498,-0.027));
#902=CARTESIAN_POINT('',(-0.004,0.0622196624079498,-0.027));
#903=CARTESIAN_POINT('',(-0.004,0.0612196624079498,-0.027));
#904=CARTESIAN_POINT('',(0.,0.0612196624079498,-0.027));
#905=CARTESIAN_POINT('',(0.004,0.0612196624079498,-0.027));
#906=CARTESIAN_POINT('',(0.004,0.0622196624079498,-0.027));
#907=CARTESIAN_POINT('',(0.005,0.0622196624079498,-0.027));
#908=CARTESIAN_POINT('',(0.005,0.,-0.027));
#909=CARTESIAN_POINT('',(0.005,0.0652196624079498,-0.027));
#910=CARTESIAN_POINT('',(0.004,0.0652196624079498,-0.027));
#911=CARTESIAN_POINT('',(0.004,0.0662196624079498,-0.027));
#912=CARTESIAN_POINT('',(0.,0.0662196624079498,-0.027));
#913=CARTESIAN_POINT('',(-0.004,0.0662196624079498,-0.027));
#914=CARTESIAN_POINT('',(-0.004,0.0652196624079498,-0.027));
#915=CARTESIAN_POINT('',(0.,4.19549294685843E-18,-0.027));
#916=CARTESIAN_POINT('',(0.,4.19549294685843E-18,-0.027));
#917=CARTESIAN_POINT('',(0.,4.01808449608777E-18,-0.027));
#918=CARTESIAN_POINT('',(0.,-5.85067484210152E-18,-0.027));
#919=CARTESIAN_POINT('',(-0.072092669913015,-5.85067484210152E-18,-0.027));
#920=CARTESIAN_POINT('',(0.,-5.85067484210152E-18,-0.025));
#921=CARTESIAN_POINT('',(0.,4.01808449608777E-18,-0.027));
#922=CARTESIAN_POINT('',(0.,4.19549294685843E-18,-0.027));
#923=CARTESIAN_POINT('',(0.,4.19549294685843E-18,-0.027));
#924=CARTESIAN_POINT('',(-0.0025,0.0612196624079498,-0.05));
#925=CARTESIAN_POINT('',(0.004,0.0612196624079498,-0.027));
#926=CARTESIAN_POINT('',(-0.004,0.0612196624079498,-0.05));
#927=CARTESIAN_POINT('',(0.005,0.0637196624079498,-0.05));
#928=CARTESIAN_POINT('',(0.005,0.0622196624079498,-0.025));
#929=CARTESIAN_POINT('',(0.005,0.0652196624079498,-0.05));
#930=CARTESIAN_POINT('',(-0.0025,0.0662196624079498,-0.05));
#931=CARTESIAN_POINT('',(0.004,0.0662196624079498,-0.05));
#932=CARTESIAN_POINT('',(-0.004,0.0662196624079498,-0.027));
#933=CARTESIAN_POINT('',(-0.005,0.0637196624079498,-0.05));
#934=CARTESIAN_POINT('',(-0.005,0.0622196624079498,-0.05));
#935=CARTESIAN_POINT('',(-0.005,0.0652196624079498,-0.025));
#936=CARTESIAN_POINT('',(0.004,0.0622196624079498,-0.05));
#937=CARTESIAN_POINT('',(0.004,0.0652196624079498,-0.05));
#938=CARTESIAN_POINT('',(-0.004,0.0622196624079498,-0.05));
#939=CARTESIAN_POINT('',(-0.004,0.0652196624079498,-0.05));
#940=CARTESIAN_POINT('',(7.07900427003853E-17,-6.66133814775094E-16,-0.023));
#941=CARTESIAN_POINT('',(-0.0139213697415293,0.0646580880049416,-0.023));
#942=CARTESIAN_POINT('',(-0.0139213697415293,0.0646580880049416,-0.023));
#943=CARTESIAN_POINT('',(7.07900427003853E-17,-6.66133814775094E-16,-0.023));
#944=CARTESIAN_POINT('',(0.0139213697415292,0.0646580880049416,-0.023));
#945=CARTESIAN_POINT('',(0.0139213697415292,0.0646580880049416,-0.023));
#946=CARTESIAN_POINT('',(-0.0139213697415292,0.0653946629906357,-0.023));
#947=CARTESIAN_POINT('',(-0.0139213697415292,0.0661312379763299,-0.023));
#948=CARTESIAN_POINT('',(-0.0139213697415292,0.0661312379763299,-0.023));
#949=CARTESIAN_POINT('',(-0.0139213697415292,0.0653946629906357,-0.023));
#950=CARTESIAN_POINT('',(-1.41396058772821E-17,1.11022302462516E-16,-0.023));
#951=CARTESIAN_POINT('',(0.0139213697415292,0.0661312379763299,-0.023));
#952=CARTESIAN_POINT('',(0.0139213697415292,0.0661312379763299,-0.023));
#953=CARTESIAN_POINT('',(-1.41396058772821E-17,1.11022302462516E-16,-0.023));
#954=CARTESIAN_POINT('',(0.0139213697415292,0.0653946629906357,-0.023));
#955=CARTESIAN_POINT('',(0.0139213697415292,0.0653946629906357,-0.023));
#956=CARTESIAN_POINT('',(0.,0.,-0.023));
#957=CARTESIAN_POINT('',(0.,0.,-0.0074));
#958=CARTESIAN_POINT('',(0.,2.49437398435073E-18,-0.0074));
#959=CARTESIAN_POINT('',(0.0199388576610277,2.49437398435073E-18,-0.0074));
#960=CARTESIAN_POINT('',(0.,2.49437398435073E-18,-0.006));
#961=CARTESIAN_POINT('',(0.,2.49437398435073E-18,-0.006));
#962=CARTESIAN_POINT('',(0.0199388576610277,1.27347107368912E-18,-0.006));
#963=CARTESIAN_POINT('',(0.,-0.000349345766861242,-0.006));
#964=MECHANICAL_DESIGN_GEOMETRIC_PRESENTATION_REPRESENTATION('',(#561),
#965);
#965=(
GEOMETRIC_REPRESENTATION_CONTEXT(3)
GLOBAL_UNCERTAINTY_ASSIGNED_CONTEXT((#966))
GLOBAL_UNIT_ASSIGNED_CONTEXT((#969,#968,#967))
REPRESENTATION_CONTEXT('Part 3','TOP_LEVEL_ASSEMBLY_PART')
);
#966=UNCERTAINTY_MEASURE_WITH_UNIT(LENGTH_MEASURE(3.73270932373319E-5),
#969,'DISTANCE_ACCURACY_VALUE','Maximum Tolerance applied to model');
#967=(
NAMED_UNIT(*)
SI_UNIT($,.STERADIAN.)
SOLID_ANGLE_UNIT()
);
#968=(
NAMED_UNIT(*)
PLANE_ANGLE_UNIT()
SI_UNIT($,.RADIAN.)
);
#969=(
LENGTH_UNIT()
NAMED_UNIT(*)
SI_UNIT($,.METRE.)
);
#970=PRODUCT_DEFINITION_SHAPE('','',#971);
#971=PRODUCT_DEFINITION('','',#973,#972);
#972=PRODUCT_DEFINITION_CONTEXT('',#979,'design');
#973=PRODUCT_DEFINITION_FORMATION_WITH_SPECIFIED_SOURCE('','',#975,
 .NOT_KNOWN.);
#974=PRODUCT_RELATED_PRODUCT_CATEGORY('','',(#975));
#975=PRODUCT('Part 3','Part 3','Part 3',(#977));
#976=PRODUCT_CATEGORY('','');
#977=PRODUCT_CONTEXT('',#979,'mechanical');
#978=APPLICATION_PROTOCOL_DEFINITION('international standard',
'ap242_managed_model_based_3d_engineering',2020,#979);
#979=APPLICATION_CONTEXT('managed model based 3d engineering');
ENDSEC;
END-ISO-10303-21;
